<svg width="15" height="15" viewBox="0 0 15 15" fill="none" xmlns="http://www.w3.org/2000/svg">
<g clip-path="url(#clip0_68:8806)">
<path d="M0.901645 8.5528C0.963021 8.56277 1.02514 8.56736 1.08728 8.56656H11.6695L11.4387 8.67388C11.2132 8.78063 11.008 8.92592 10.8324 9.10318L7.86484 12.0707C7.47401 12.4438 7.40834 13.044 7.70922 13.4927C8.0594 13.971 8.73094 14.0748 9.20921 13.7246C9.24784 13.6963 9.28457 13.6655 9.31908 13.6323L14.6853 8.26605C15.1047 7.84715 15.105 7.16762 14.6861 6.74825C14.6859 6.74798 14.6856 6.74768 14.6853 6.74741L9.31908 1.3812C8.89938 0.962668 8.21985 0.963608 7.80128 1.38331C7.76835 1.41635 7.73759 1.4515 7.70922 1.48852C7.40834 1.93731 7.47401 2.53748 7.86484 2.91057L10.827 5.88345C10.9845 6.04108 11.1655 6.17326 11.3636 6.27518L11.6856 6.42007H1.14634C0.598084 6.39971 0.117071 6.78269 0.0140734 7.32159C-0.0808077 7.90668 0.316561 8.45789 0.901645 8.5528Z" fill="#48D6AF"/>
</g>
<defs>
<clipPath id="clip0_68:8806">
<rect width="15" height="15" fill="white" transform="translate(15 15) rotate(-180)"/>
</clipPath>
</defs>
</svg>
