<svg width="344" height="238" viewBox="0 0 344 238" fill="none" xmlns="http://www.w3.org/2000/svg">
<path d="M199.984 181.027C199.984 181.027 234.408 206.524 253.996 166.541C217.278 141.669 199.984 181.027 199.984 181.027Z" fill="#C9F4E7"/>
<path d="M217.054 162.69C217.054 162.69 221.088 165.097 225.152 167.497C227.192 168.7 229.231 169.896 230.785 170.791C231.532 171.242 232.212 171.611 232.682 171.866L232.824 171.949L216.098 176.462L207.246 171.25L206.977 171.716L215.366 176.612L201.247 180.373L201.381 180.899L223.397 175.01L216.195 187.525L216.666 187.796L224.136 174.815L238.562 170.949L233.459 184.434L233.945 184.622L239.174 170.783L248.751 168.241L248.617 167.715L233.601 171.738L233.325 171.603C232.1 170.956 228.096 168.595 224.405 166.429L219.482 163.51L217.913 162.57L217.331 162.224L217.054 162.69Z" fill="white"/>
<path d="M136.62 178.808C136.62 178.808 102.196 204.305 82.6084 164.323C119.356 139.45 136.62 178.808 136.62 178.808Z" fill="#C9F4E7"/>
<path d="M119.58 160.472C119.58 160.472 115.546 162.879 111.482 165.285C109.442 166.481 107.403 167.677 105.849 168.572C105.102 169.023 104.422 169.392 103.952 169.648L103.81 169.73L120.536 174.243L129.389 169.076L129.657 169.542L121.268 174.439L135.387 178.199L135.253 178.726L113.237 172.822L120.439 185.337L119.968 185.608L112.498 172.626L98.0723 168.76L103.175 182.246L102.689 182.434L97.4597 168.595L87.8901 166.03L88.0245 165.503L103.048 169.527L103.317 169.392C104.542 168.745 108.546 166.383 112.236 164.217L117.159 161.299L118.728 160.366L119.311 160.013L119.58 160.472Z" fill="white"/>
<path d="M64.8287 33.3865C64.8287 33.3865 8.05313 51.0236 36.2392 106.124C94.2249 85.3578 64.8287 33.3865 64.8287 33.3865Z" fill="#C9F4E7"/>
<path d="M71.089 67.7131C71.089 67.7131 65.1126 70.2628 59.0466 72.8501C56.0584 74.1512 53.018 75.4524 50.7395 76.4602L47.9829 77.7012L47.7737 77.799L56.6262 55.2806L69.6846 49.5946L69.3857 48.9027L57.0147 54.2953L64.4851 35.2818L63.7904 35.0035L52.1439 64.6445L44.2103 46.2026L43.523 46.4959L51.7405 65.6373L44.1132 85.0645L33.393 68.2095L32.7805 68.6081L43.8069 85.9068L38.7419 98.7981L39.4366 99.0689L47.3628 78.8445L47.7363 78.6489C49.4695 77.8065 55.3936 75.2418 60.8619 72.8952L68.1755 69.7739L70.5063 68.7811L71.3729 68.4126L71.089 67.7131Z" fill="white"/>
<path d="M1.27001 75.9187C1.27001 75.9187 -11.1833 126.273 42.0961 129.883C52.8162 77.2349 1.27001 75.9187 1.27001 75.9187Z" fill="#A3E8D2"/>
<path d="M29.3888 86.6288C29.3888 86.6288 28.5745 92.2697 27.7826 97.9106C27.3867 100.746 26.9982 103.589 26.7143 105.74C26.5799 106.816 26.4678 107.718 26.3931 108.365C26.3931 108.44 26.3931 108.5 26.3931 108.561L13.7307 91.8711L15.3891 79.5514L14.7168 79.4912L13.148 91.1566L2.50257 77.0168L1.97964 77.4154L18.6313 99.4224L1.44923 97.0833L1.35959 97.7301L19.1991 100.159L30.1059 114.578L12.8268 115.044V115.676L30.5616 115.202L37.8005 124.769L38.316 124.37L26.9609 109.328C26.9609 109.258 26.9609 109.137 26.9609 108.967C27.1178 107.29 27.8797 101.716 28.6044 96.5718C28.963 93.9921 29.3514 91.5251 29.5755 89.705C29.71 88.7874 29.8146 88.0353 29.8893 87.5163C29.964 86.9974 30.0088 86.6965 30.0088 86.6965L29.3888 86.6288Z" fill="white"/>
<path d="M20.6484 101.017C20.6484 101.017 -14.5674 161.058 52.6593 186.337C86.5005 122.625 20.6484 101.017 20.6484 101.017Z" fill="#D3D3D3"/>
<path d="M52.8162 125.686C52.8162 125.686 49.6188 132.628 46.4364 139.623C44.8452 143.12 43.2615 146.633 42.0811 149.295C41.491 150.627 41.0054 151.747 40.6692 152.552L40.5646 152.793L30.6364 126.386L37.4644 111.163L36.6725 110.802L30.1956 125.22L21.8287 102.912L21.0144 103.228L34.0579 137.999L12.8417 128.379L12.4757 129.131L34.4911 139.142L43.0374 161.931L20.626 155.846L20.4018 156.674L43.4109 162.976L49.081 178.019L49.9027 177.71L41.0054 154.019C41.0054 153.936 41.0876 153.785 41.1772 153.56C42.0064 151.461 45.1216 144.534 48.0127 138.224C49.4545 135.05 50.8515 132.012 51.8824 129.763L53.1225 127.063C53.4213 126.423 53.5856 126.055 53.5856 126.055L52.8162 125.686Z" fill="white"/>
<path d="M343.828 116.345C343.828 116.345 301.306 111.99 304.601 156.448C348.811 159.08 343.828 116.345 343.828 116.345Z" fill="#C9F4E7"/>
<path d="M338.397 140.857C338.397 140.857 333.706 140.857 328.992 140.857C326.631 140.857 324.271 140.857 322.485 140.894L320.304 140.939H320.147L332.286 128.529L342.521 128.454V127.913L332.809 127.988L343.066 117.503L342.67 117.097L326.683 133.441L326.571 118.985H326.034L326.146 133.99L315.687 144.7L313.281 130.47L312.766 130.56L315.231 145.159L308.284 152.266L308.672 152.642L319.572 141.496H319.87C321.252 141.428 325.892 141.398 330.172 141.391H338.39L338.397 140.857Z" fill="white"/>
<path d="M318.294 59.124C318.294 59.124 257.111 91.8035 301.329 148.686C363.244 112.178 318.294 59.124 318.294 59.124Z" fill="#A3E8D2"/>
<path d="M332.906 97.0607C332.906 97.0607 326.579 101.303 320.207 105.59C317.039 107.741 313.864 109.899 311.474 111.554C310.286 112.374 309.285 113.058 308.582 113.585L308.366 113.735L313.595 86.0046L327.318 76.6182L326.825 75.866L313.879 84.7561L318.316 61.3351L317.457 61.1697L310.547 97.715L297.459 78.333L296.712 78.8219L310.293 98.9335L305.759 122.858L289.787 105.883L289.174 106.47L305.587 123.866L302.599 139.736L303.458 139.901L308.179 114.999C308.246 114.939 308.373 114.833 308.56 114.69C310.36 113.344 316.591 109.102 322.343 105.214L330.038 100.024L332.495 98.3769L333.414 97.7677L332.906 97.0607Z" fill="white"/>
<path d="M238.308 25.3765C238.308 25.3765 221.589 64.9679 264.746 74.9786C280.329 33.2286 238.308 25.3765 238.308 25.3765Z" fill="#C9F4E7"/>
<path d="M259.95 37.8466C259.95 37.8466 258.553 42.3593 257.171 46.872C256.476 49.1283 255.789 51.3847 255.281 53.1446C255.027 54.002 254.818 54.7316 254.676 55.2505C254.676 55.3107 254.676 55.3558 254.676 55.4085L246.458 40.0578L249.446 30.19L248.931 30.0321L246.129 39.3809L239.219 26.4144L238.741 26.6776L249.521 46.887L235.768 42.7128L235.611 43.2317L249.88 47.5639L256.939 60.8012L242.745 58.9058L242.678 59.4323L257.208 61.4405L261.892 70.2252L262.363 69.962L255.012 56.1756C255.012 56.1155 255.012 56.0177 255.087 55.8748C255.423 54.5285 256.775 50.0609 258.03 45.9393C258.665 43.8785 259.27 41.908 259.726 40.4489L260.264 38.6964C260.391 38.2753 260.465 38.0421 260.465 38.0421L259.95 37.8466Z" fill="white"/>
<path d="M156.805 78.3932H163.379C163.504 76.8155 164.213 75.3426 165.366 74.266C166.518 73.1894 168.03 72.5875 169.602 72.5793H179.403C179.198 71.8449 179.092 71.0859 179.089 70.323C179.097 68.0454 179.999 65.8634 181.599 64.2529C183.199 62.6424 185.366 61.7342 187.628 61.7263H202.659C204.916 61.7361 207.078 62.6422 208.675 64.2476C210.273 65.853 211.176 68.0281 211.19 70.3004C211.187 71.0633 211.081 71.8223 210.876 72.5567H212.213C213.785 72.5649 215.297 73.1668 216.45 74.2434C217.602 75.32 218.311 76.7929 218.436 78.3706H220.401C222.509 78.435 224.509 79.3234 225.978 80.8475C227.447 82.3716 228.268 84.4115 228.268 86.5348C228.268 88.6582 227.447 90.6981 225.978 92.2222C224.509 93.7463 222.509 94.6347 220.401 94.6991H156.805C154.697 94.6347 152.697 93.7463 151.228 92.2222C149.76 90.6981 148.938 88.6582 148.938 86.5348C148.938 84.4115 149.76 82.3716 151.228 80.8475C152.697 79.3234 154.697 78.435 156.805 78.3706V78.3932Z" fill="#C9F4E7"/>
<path d="M282.548 189.383V194.091L263.043 204.997V200.289L282.548 189.383Z" fill="#112B46"/>
<path d="M263.043 200.289V204.997L237.583 196.453V191.737L263.043 200.289Z" fill="#27AF85"/>
<path d="M282.548 189.383L263.043 200.289L237.583 191.737L251.665 184.081V186.435L266.942 190.955L272.313 188.593V185.938L282.548 189.383Z" fill="#38846C"/>
<path d="M272.313 185.938V188.593L266.942 190.955V174.529L272.313 174.822V185.938Z" fill="#112B46"/>
<path d="M266.942 174.529V190.955L251.665 186.435V184.081V173.671L266.942 174.529Z" fill="#27AF85"/>
<path d="M301.859 175.83L293.537 179.169V39.9299L301.859 41.562V175.83Z" fill="#112B46"/>
<path d="M209.801 171.325V72.1882L293.537 39.9374V179.169L209.801 171.325Z" fill="#38846C"/>
<path d="M290.16 45.4279V170.528L213.177 166.21V75.0838L250.776 60.5981L290.16 45.4279Z" fill="#D3D3D3"/>
<path d="M145.741 62.4182C145.656 61.0401 145.266 59.6986 144.598 58.4922L145.726 57.8604C145.156 56.8292 144.419 55.9013 143.545 55.1151L142.686 56.0929C141.66 55.1758 140.442 54.5024 139.122 54.1224L139.474 52.8738C138.55 52.6125 137.595 52.4784 136.635 52.4752C136.426 52.4752 136.224 52.4752 136.022 52.4752L136.097 53.7764C134.729 53.8596 133.396 54.2502 132.197 54.9196L131.57 53.7839C130.544 54.3553 129.622 55.0979 128.843 55.9801L129.814 56.845C128.901 57.8737 128.232 59.0979 127.857 60.4251L126.617 60.0716C126.355 61.0039 126.221 61.9682 126.221 62.9372C126.221 63.1403 126.221 63.3433 126.221 63.5389L127.513 63.4637C127.581 64.8642 127.967 66.2304 128.641 67.4574L127.506 68.0892C128.074 69.1217 128.811 70.0499 129.687 70.8344L130.554 69.8642C131.578 70.7822 132.793 71.458 134.11 71.8423L133.751 73.0832C134.677 73.3473 135.635 73.4815 136.597 73.4819H137.225L137.15 72.1807C138.518 72.0997 139.849 71.7062 141.042 71.03L141.677 72.1657C142.699 71.5919 143.619 70.8495 144.397 69.9695L143.425 69.1045C144.336 68.0713 145.005 66.8452 145.383 65.5169L146.623 65.8704C146.885 64.9381 147.018 63.9738 147.019 63.0049C147.019 62.8018 147.019 62.5912 147.019 62.3806L145.741 62.4182ZM134.356 71.0224L134.424 70.7968L134.356 71.0224ZM141.939 64.4489C141.658 65.4431 141.108 66.3387 140.35 67.0354C139.591 67.732 138.655 68.202 137.646 68.3925C136.637 68.5831 135.596 68.4866 134.638 68.114C133.681 67.7415 132.845 67.1075 132.226 66.2833C131.607 65.4592 131.228 64.4775 131.132 63.4485C131.036 62.4196 131.227 61.3841 131.683 60.4584C132.14 59.5326 132.844 58.7534 133.716 58.2081C134.588 57.6628 135.593 57.3731 136.62 57.3715C137.126 57.3726 137.629 57.4461 138.114 57.5896C138.812 57.7874 139.464 58.1218 140.034 58.5738C140.603 59.0258 141.078 59.5864 141.432 60.2235C141.786 60.8607 142.012 61.5619 142.096 62.2869C142.18 63.012 142.122 63.7467 141.924 64.4489H141.939Z" fill="#A3E8D2"/>
<path d="M151.972 110.531C151.842 108.318 151.216 106.163 150.141 104.228L151.957 103.213C151.04 101.56 149.856 100.073 148.453 98.8132L147.071 100.378C145.429 98.9019 143.474 97.8217 141.356 97.2187L141.924 95.2105C140.438 94.7891 138.903 94.574 137.359 94.5712C137.031 94.5712 136.702 94.5712 136.373 94.5712L136.5 96.6621C134.303 96.7939 132.164 97.421 130.24 98.4973L129.232 96.6696C127.588 97.5901 126.111 98.7826 124.861 100.197L126.415 101.588C124.947 103.242 123.872 105.209 123.27 107.342L121.276 106.763V106.808C120.853 108.303 120.639 109.85 120.641 111.404C120.641 111.725 120.641 112.048 120.641 112.374L122.717 112.254C122.836 114.481 123.456 116.652 124.533 118.601L122.717 119.617C123.628 121.271 124.81 122.759 126.213 124.017L127.596 122.46C129.238 123.933 131.188 125.015 133.303 125.626L132.75 127.627H132.802C134.288 128.049 135.824 128.264 137.367 128.266C137.703 128.266 138.039 128.266 138.375 128.266L138.248 126.175C140.444 126.039 142.581 125.407 144.501 124.325L145.517 126.153C147.159 125.23 148.634 124.035 149.88 122.618L148.326 121.226C149.793 119.574 150.866 117.606 151.464 115.473L153.451 116.044C153.873 114.55 154.087 113.003 154.086 111.449C154.086 111.118 154.086 110.779 154.086 110.448L151.972 110.531ZM133.706 124.348L133.811 123.979L133.706 124.348ZM145.876 113.818C145.35 115.687 144.233 117.332 142.695 118.504C141.157 119.677 139.281 120.313 137.352 120.316C136.534 120.314 135.719 120.2 134.932 119.978C132.867 119.396 131.082 118.08 129.907 116.275C128.732 114.47 128.246 112.297 128.539 110.159C128.833 108.021 129.886 106.062 131.503 104.646C133.121 103.229 135.193 102.45 137.337 102.453C138.155 102.456 138.97 102.569 139.757 102.792C140.879 103.111 141.926 103.649 142.84 104.376C143.755 105.103 144.518 106.005 145.086 107.029C145.654 108.052 146.016 109.179 146.152 110.344C146.287 111.509 146.194 112.689 145.876 113.818Z" fill="#D3D3D3"/>
<path d="M102.965 193.602V197.747L90.0415 207.562V203.711L102.965 193.602Z" fill="#BCBEC0"/>
<path d="M90.0341 203.711V207.562C90.0341 207.562 77.3791 206.479 74.0547 203.952C71.3205 201.868 71.0665 196.378 71.0143 195.332L74.7495 193.234C74.7495 193.234 73.487 199.153 76.1465 201.169C79.0674 203.372 90.0341 203.711 90.0341 203.711Z" fill="#808285"/>
<path d="M71.0142 195.317L57.0967 203.124C56.6503 203.374 56.1655 203.547 55.6624 203.636V191.346L113.26 159.757H115.501V170.467L92.559 183.283L74.7644 193.234L71.0142 195.317Z" fill="#BCBEC0"/>
<path d="M115.493 68.0215V159.735H113.252V69.3227L55.655 55.6793V51.7006L113.618 65.705C114.144 65.8231 114.614 66.1159 114.955 66.5361C115.295 66.9563 115.485 67.4795 115.493 68.0215Z" fill="#BCBEC0"/>
<path d="M113.267 69.3226V159.735L55.6624 191.346V55.6792L113.267 69.3226Z" fill="#48D6AF"/>
<path d="M102.965 193.603L90.0341 203.711C90.0341 203.711 79.0674 203.373 76.1614 201.169C73.5019 199.153 74.7644 193.234 74.7644 193.234L92.5591 183.283L92.3947 186.397C92.6114 189.669 94.352 190.083 96.5483 191.045L102.965 193.603Z" fill="#D1D3D4"/>
<path d="M55.6625 203.636V203.711H54.8557C55.1262 203.708 55.396 203.683 55.6625 203.636Z" fill="#808285"/>
<path d="M55.6624 191.346V203.636C55.396 203.683 55.1261 203.708 54.8556 203.711C53.6863 203.723 52.5596 203.27 51.7203 202.45C50.8809 201.631 50.3969 200.511 50.3733 199.334V55.0475C50.3929 54.0693 50.7973 53.139 51.4976 52.4607C52.1979 51.7824 53.137 51.4116 54.1086 51.4298C54.4152 51.4322 54.7207 51.4675 55.0199 51.5351L55.7072 51.7005V191.346H55.6624Z" fill="#BCBEC0"/>
<path d="M54.8557 203.711H52.5473C45.8239 203.711 40.3181 198.409 40.3181 191.865V60.8538C40.3672 58.3084 41.4174 55.8865 43.2381 54.1197C45.0588 52.3529 47.5014 51.3855 50.0297 51.4298H54.0489C53.0773 51.4117 52.1382 51.7824 51.4379 52.4607C50.7376 53.139 50.3333 54.0693 50.3136 55.0475V199.334C50.3253 199.922 50.4521 200.502 50.6869 201.04C50.9217 201.579 51.2597 202.065 51.6817 202.472C52.1037 202.879 52.6013 203.197 53.146 203.41C53.6907 203.623 54.2717 203.725 54.8557 203.711Z" fill="#808285"/>
<path d="M221.193 157.253C221.298 161.088 220.446 162.412 220.446 162.412C220.446 162.412 218.324 161.517 217.622 160.156L221.193 157.253Z" fill="#D4D6D8"/>
<path d="M228.925 162.901C226.071 164.082 223.74 160.156 223.74 160.156L223.628 159.998L230.412 154.801C230.352 157.23 230.173 159.772 229.866 162.412C229.566 162.6 229.251 162.763 228.925 162.901Z" fill="#112B46"/>
<path d="M179.911 116.939C189.264 118.255 191.356 117.075 194.733 113.931C194.733 113.931 205.46 110.057 214.821 133.238C219.781 145.49 221.073 152.951 221.193 157.245L217.652 160.148L206.611 169.174C206.012 167.018 205.076 164.972 203.839 163.112C201.359 159.013 196.032 149.536 179.934 139.849C163.835 130.161 165.74 139.097 154.96 142.067C144.18 145.038 140.527 137.495 141.438 135.14C142.185 133.215 154.721 124.468 160.921 120.339C162.311 119.406 163.387 118.714 163.909 118.376C166.898 116.548 170.543 115.63 179.911 116.939Z" fill="#D1AE88"/>
<path d="M290.16 45.4279V112.584C265.015 134.712 229.956 161.63 229.866 162.412C230.173 159.772 230.352 157.23 230.412 154.801C230.92 132.305 221.029 119.12 213.17 112.239C210.734 110.077 208.065 108.198 205.214 106.635C205.214 106.635 203.608 107.568 201.561 108.892C201.368 108.507 201.259 108.085 201.242 107.654C201.226 107.223 201.301 106.793 201.464 106.395C201.874 105.597 206.424 101.22 213.17 94.9473C223.001 85.8091 237.523 72.6395 250.769 60.5906L290.16 45.4279Z" fill="#112B46"/>
<path d="M205.214 106.635C210.779 109.644 231.136 122.761 230.412 154.771L223.628 159.968L220.476 162.382C220.476 162.382 221.298 161.058 221.223 157.223C221.103 152.928 219.811 145.467 214.851 133.215C205.46 110.065 194.755 113.938 194.755 113.938C196.901 112.085 199.184 110.398 201.583 108.892C203.608 107.568 205.214 106.635 205.214 106.635Z" fill="#E6E7E8"/>
<path d="M107.209 164.864C108.419 164.117 109.518 163.2 110.473 162.141L107.485 158.426L105.991 160.494L107.209 164.864Z" fill="#B7BABC"/>
<path d="M205.214 173.965C204.696 174.457 204.062 174.809 203.372 174.988C202.683 175.167 201.959 175.167 201.269 174.988C200.931 174.914 200.598 174.813 200.276 174.687C200.499 175.204 200.677 175.74 200.806 176.289C201.224 177.981 201.426 180.696 199.409 182.727C197.392 184.758 195.674 185.525 192.805 184.419C192.596 184.344 192.387 184.246 192.155 184.148C192.708 184.946 193.069 185.863 193.209 186.826C193.32 187.627 193.242 188.443 192.983 189.209C192.723 189.974 192.289 190.668 191.715 191.233C189.757 193.354 187.778 193.445 186.298 193.016C185.969 192.916 185.647 192.793 185.335 192.647C185.502 192.963 185.635 193.296 185.731 193.64C185.931 194.289 185.968 194.979 185.838 195.646C185.707 196.313 185.414 196.937 184.984 197.461C183.168 199.68 179.799 199.025 176.34 197.461C175.145 196.904 172.971 195.957 170.633 194.964C166.27 193.099 161.384 191.038 161.384 191.038C161.384 191.038 162.692 188.616 159.27 184.201C157.336 181.697 155.184 181.426 153.428 182.464C153.428 182.328 154.833 175.138 150.403 172.227C147.803 170.52 145.726 171.799 144.098 174.115C144.098 174.115 143.769 168.482 139.967 167.512C137.158 166.759 135.574 168.452 133.796 171.438C133.796 171.438 132.451 164.766 128.843 164.857C126.154 164.924 123.845 167.339 122.478 170.475L109.375 161.412L107.134 159.908H107C107.433 151.762 110.839 134.411 129.628 113.983C134.222 116.518 138.211 118.459 139.944 118.94C143.851 120.023 144.949 119.075 151.187 118.586C154.785 118.259 158.411 118.629 161.87 119.677C155.67 123.806 142.081 133.253 141.341 135.178C140.43 137.532 144.068 145.121 154.863 142.105C165.658 139.089 163.708 130.199 179.837 139.886C195.965 149.574 201.284 159.05 203.742 163.149C204.979 165.009 205.915 167.056 206.514 169.211C206.757 170.047 206.764 170.934 206.535 171.774C206.305 172.614 205.848 173.372 205.214 173.965Z" fill="#E8C8A1"/>
<path d="M170.685 194.971C170.685 194.971 162.647 199.913 156.491 197.468C155.814 197.2 155.155 196.886 154.519 196.528C154.48 196.516 154.445 196.495 154.414 196.468L153.667 196.024C149.97 193.58 149.32 190.218 150.448 186.66C150.918 184.953 151.978 183.471 153.436 182.479C153.582 182.385 153.737 182.306 153.899 182.246C155.565 181.493 157.507 181.922 159.278 184.216C162.699 188.631 161.392 191.053 161.392 191.053C161.392 191.053 166.322 193.106 170.685 194.971Z" fill="#D1AE88"/>
<path d="M153.667 196.024L153.346 196.062L148.221 196.686C146.952 196.85 145.665 196.586 144.561 195.934C144.299 195.783 144.05 195.612 143.814 195.423C142.23 194.114 140.221 192.279 139.705 190.91C138.831 188.548 139.511 184.893 141.259 180.11C141.966 178.008 142.933 176.005 144.135 174.145C144.368 173.831 144.618 173.53 144.882 173.243C146.376 171.528 148.244 170.791 150.478 172.257C154.429 174.852 153.727 180.839 153.54 182.2C153.54 182.373 153.503 182.479 153.503 182.494C152.045 183.486 150.986 184.968 150.515 186.675C149.327 190.218 149.977 193.58 153.667 196.024Z" fill="#D1AE88"/>
<path d="M143.829 195.408H143.545C141.153 195.654 138.748 195.762 136.343 195.731C132.885 195.633 130.554 193.836 128.499 190.376C128.224 189.904 128.011 189.398 127.864 188.872C127.757 188.526 127.679 188.171 127.633 187.811C127.11 183.93 129.523 179.267 131.824 175.078C132.571 173.717 133.221 172.483 133.848 171.408C134.065 171.054 134.274 170.716 134.483 170.4C136.015 168.053 137.539 166.835 140.019 167.481C143.269 168.309 143.986 172.551 144.12 173.762C144.12 173.965 144.12 174.085 144.12 174.085C142.918 175.944 141.952 177.948 141.244 180.049C139.496 184.863 138.816 188.488 139.69 190.85C140.221 192.264 142.245 194.099 143.829 195.408Z" fill="#D1AE88"/>
<path d="M131.824 175.115C129.523 179.305 127.11 183.968 127.633 187.849L127.416 187.796C126.248 187.499 125.112 187.086 124.025 186.563C123.068 186.107 122.26 185.384 121.699 184.48C121.138 183.576 120.845 182.529 120.857 181.463C120.852 178.931 121.06 176.402 121.477 173.905C121.708 172.732 122.061 171.588 122.531 170.49C123.898 167.354 126.206 164.939 128.895 164.872C132.011 164.789 133.452 169.745 133.774 171.092C133.804 171.211 133.829 171.331 133.848 171.453C133.221 172.521 132.571 173.754 131.824 175.115Z" fill="#D1AE88"/>
<path d="M107.074 159.878C106.966 161.54 107.011 163.21 107.209 164.864L89.526 158.464C90.5644 127.574 112.804 103.348 112.804 103.348C118.78 106.59 125.16 110.546 130.927 113.72C112.139 134.125 107.507 151.732 107.074 159.878Z" fill="#DBDCDD"/>
<path d="M112.804 103.326L112.692 103.454C112.557 103.612 112.318 103.875 112.005 104.251L111.81 104.484C111.564 104.77 111.288 105.108 110.966 105.499L110.354 106.252C109.898 106.831 109.39 107.493 108.86 108.222L108.441 108.786C107.874 109.538 107.268 110.403 106.633 111.313C106.35 111.719 106.066 112.141 105.767 112.577L105.162 113.487L104.654 114.239L103.623 115.864L103.1 116.714C102.577 117.578 102.047 118.473 101.516 119.399C101.337 119.707 101.165 120.023 100.986 120.339C100.635 120.971 100.276 121.617 99.9249 122.287C99.5738 122.956 99.2675 123.52 98.9463 124.159C98.926 124.212 98.9009 124.262 98.8716 124.31L98.3561 125.355C97.1534 127.822 95.988 130.447 94.9272 133.207C94.6358 133.96 94.352 134.712 94.0756 135.501C93.7992 136.291 93.5078 137.149 93.2463 137.983C93.1119 138.39 92.9849 138.803 92.8579 139.217C91.5116 143.605 90.559 148.105 90.0116 152.665C89.9145 153.515 89.8249 154.372 89.7576 155.237C89.6779 156.275 89.6182 157.32 89.5783 158.373C89.5036 160.554 85.5368 160.991 84.0427 161.051C79.8966 161.231 69.4305 155.147 60.4734 149.446C58.8224 148.385 57.2163 147.34 55.7147 146.354V61.7037C60.4211 64.7121 68.153 69.977 76.3481 75.5802C91.2891 85.8617 107.724 97.3916 109.965 98.8959C110.78 99.4675 114.111 101.904 112.804 103.326Z" fill="#E6E7E8"/>
<path d="M76.2958 75.5802C71.9929 76.1669 67.1445 78.0397 63.977 82.9359C57.7392 92.6006 54.7884 129.357 60.4211 149.513C58.7701 148.453 57.164 147.407 55.6624 146.422V61.7037C60.3688 64.7046 68.1007 69.9544 76.2958 75.5802Z" fill="#DBDCDD"/>
<path d="M149.872 15.3657H145.599C145.507 14.3415 145.038 13.3889 144.285 12.6936C143.533 11.9983 142.549 11.6102 141.528 11.6052H135.126C135.261 11.1152 135.331 10.6094 135.335 10.1009C135.329 8.61268 134.739 7.18709 133.694 6.13474C132.649 5.08238 131.233 4.48855 129.755 4.4826H119.931C118.452 4.48658 117.035 5.07978 115.989 6.13256C114.944 7.18534 114.354 8.61207 114.35 10.1009C114.352 10.6091 114.42 11.1148 114.552 11.6052H113.686C112.664 11.6085 111.68 11.996 110.926 12.6916C110.173 13.3872 109.705 14.3409 109.614 15.3657H108.329C106.924 15.3657 105.577 15.9276 104.584 16.9276C103.591 17.9276 103.033 19.284 103.033 20.6983C103.033 22.1125 103.591 23.4689 104.584 24.4689C105.577 25.469 106.924 26.0308 108.329 26.0308H149.872C151.277 26.0308 152.624 25.469 153.618 24.4689C154.611 23.4689 155.169 22.1125 155.169 20.6983C155.169 19.284 154.611 17.9276 153.618 16.9276C152.624 15.9276 151.277 15.3657 149.872 15.3657Z" fill="#C9F4E7"/>
<path d="M220.155 165.699C220.207 165.709 220.255 165.732 220.296 165.766L220.155 165.699Z" fill="#A1CFE2"/>
<path d="M162.132 138.382L162.453 138.096C162.677 137.923 162.968 137.615 163.409 137.344C164.624 136.461 166.016 135.855 167.488 135.569C169.596 135.218 171.753 135.313 173.823 135.847C174.966 136.127 176.093 136.469 177.199 136.87L178.88 137.472L179.717 137.765L180.591 138.111C182.75 139.108 184.839 140.251 186.844 141.533C188.764 142.684 190.497 143.827 192.073 144.625C193.319 145.313 194.634 145.868 195.995 146.279C196.378 146.405 196.77 146.498 197.168 146.558L197.594 146.633H197.161C196.75 146.67 196.338 146.67 195.928 146.633C194.46 146.482 193.019 146.128 191.647 145.58C189.73 144.815 187.856 143.941 186.037 142.962C184.042 141.932 181.981 140.706 179.866 139.834L179.082 139.51L178.238 139.187L176.587 138.555C175.496 138.141 174.435 137.743 173.397 137.434C171.542 136.792 169.582 136.509 167.622 136.6C166.224 136.703 164.855 137.057 163.581 137.645C163.095 137.841 162.759 138.074 162.505 138.194L162.132 138.382Z" fill="#B79370"/>
<path d="M200.806 176.289L200.679 176.041C200.582 175.875 200.477 175.627 200.291 175.341C199.947 174.747 199.394 173.942 198.729 172.979C198.064 172.017 197.235 170.926 196.354 169.753C195.472 168.58 194.501 167.361 193.5 166.165C192.499 164.969 191.498 163.781 190.512 162.698C189.526 161.615 188.614 160.607 187.755 159.817C187.329 159.411 186.948 159.065 186.582 158.734C186.287 158.448 185.975 158.179 185.648 157.93L184.804 157.253L185.753 157.779C186.059 157.945 186.396 158.185 186.799 158.456C187.253 158.748 187.687 159.069 188.099 159.419C189.147 160.261 190.145 161.165 191.087 162.126C192.14 163.172 193.186 164.383 194.195 165.571C195.203 166.759 196.152 168.053 196.989 169.272C197.825 170.49 198.55 171.671 199.148 172.694C199.627 173.52 200.054 174.377 200.425 175.258C200.529 175.504 200.619 175.755 200.694 176.01L200.806 176.289Z" fill="#B79370"/>
<path d="M192.163 184.156L191.543 183.502C191.162 183.073 190.587 182.494 189.952 181.749L187.748 179.252L185.245 176.364C184.401 175.379 183.534 174.416 182.728 173.506C181.921 172.596 181.159 171.761 180.486 171.084C179.814 170.407 179.224 169.836 178.791 169.46L178.111 168.88L178.895 169.317C179.572 169.732 180.221 170.191 180.838 170.693C181.585 171.317 182.466 172.077 183.34 172.949C184.214 173.822 185.103 174.785 185.97 175.762C186.836 176.74 187.651 177.763 188.398 178.771C189.145 179.779 189.802 180.681 190.377 181.471C190.953 182.261 191.386 182.975 191.707 183.434L192.163 184.156Z" fill="#B79370"/>
<path d="M185.365 192.655L184.737 192.211C184.341 191.918 183.759 191.519 183.101 191C182.444 190.481 181.659 189.88 180.86 189.203C180.061 188.526 179.202 187.804 178.357 187.067C177.513 186.33 176.691 185.562 175.929 184.81C175.167 184.058 174.48 183.381 173.875 182.795C173.27 182.208 172.814 181.674 172.471 181.29L171.955 180.711L172.59 181.155C172.986 181.456 173.569 181.847 174.226 182.373C174.884 182.9 175.668 183.487 176.467 184.163C177.267 184.84 178.126 185.57 178.97 186.299C179.814 187.029 180.628 187.804 181.39 188.556C182.152 189.308 182.84 189.977 183.445 190.571C184.05 191.166 184.506 191.692 184.849 192.076L185.365 192.655Z" fill="#B79370"/>
<path d="M159.196 123.52L159.614 123.031C159.995 122.613 160.396 122.213 160.817 121.835C161.413 121.302 162.037 120.8 162.684 120.331C163.434 119.796 164.224 119.318 165.045 118.902C165.874 118.483 166.739 118.14 167.63 117.879C168.063 117.764 168.481 117.674 168.885 117.609L170.028 117.488C170.6 117.473 171.172 117.526 171.731 117.646L172.351 117.789L171.716 117.827C171.169 117.848 170.625 117.911 170.088 118.015L169.027 118.278L167.876 118.662C167.129 118.977 166.263 119.316 165.463 119.737C164.664 120.158 163.865 120.587 163.133 121.023C162.4 121.459 161.706 121.866 161.13 122.249C160.555 122.633 160.062 122.926 159.733 123.159L159.196 123.52Z" fill="#E8C8A1"/>
<path d="M143.829 195.408L142.992 194.776C142.265 194.2 141.581 193.572 140.945 192.896C139.989 191.933 139.234 190.788 138.727 189.526C138.454 188.776 138.354 187.974 138.435 187.179C138.476 186.773 138.558 186.372 138.682 185.984L139.01 184.893C139.459 183.434 139.937 181.975 140.46 180.636C140.983 179.297 141.543 178.071 142.051 177.041C142.47 176.211 142.941 175.41 143.463 174.642C143.851 174.1 144.09 173.799 144.09 173.799C144.09 173.799 143.904 174.138 143.62 174.739C143.336 175.341 142.955 176.206 142.529 177.259C142.103 178.312 141.685 179.568 141.229 180.914C140.773 182.261 140.333 183.712 139.899 185.171L139.556 186.262C139.444 186.591 139.367 186.932 139.324 187.277C139.245 187.949 139.306 188.631 139.504 189.278C139.907 190.471 140.519 191.581 141.311 192.557C141.999 193.445 142.626 194.159 143.082 194.64L143.829 195.408Z" fill="#B79370"/>
<path d="M153.481 182.471L153.152 183.043C152.878 183.531 152.629 184.033 152.405 184.547C152.089 185.275 151.839 186.03 151.658 186.803C151.428 187.675 151.283 188.566 151.225 189.466C151.147 190.354 151.18 191.248 151.322 192.128C151.455 192.879 151.756 193.589 152.203 194.204C152.526 194.67 152.878 195.114 153.257 195.535C153.533 195.851 153.705 196.017 153.705 196.017C153.705 196.017 153.496 195.904 153.137 195.671C152.651 195.343 152.202 194.962 151.8 194.535C151.188 193.906 150.748 193.129 150.522 192.279C150.293 191.329 150.218 190.349 150.298 189.376C150.367 188.409 150.56 187.456 150.874 186.54C151.15 185.749 151.516 184.991 151.964 184.284C152.277 183.789 152.638 183.325 153.04 182.9L153.481 182.471Z" fill="#B79370"/>
<path d="M161.437 191.045V191.166C161.443 191.268 161.443 191.371 161.437 191.474C161.437 191.594 161.437 191.745 161.437 191.903C161.437 192.061 161.399 192.219 161.37 192.377C161.339 192.534 161.299 192.69 161.25 192.843C161.21 192.979 161.16 193.112 161.101 193.241C161.061 193.338 161.014 193.431 160.959 193.52L160.899 193.618C160.897 193.577 160.897 193.537 160.899 193.497C160.893 193.394 160.893 193.292 160.899 193.189C160.892 193.049 160.892 192.908 160.899 192.768C160.899 192.61 160.899 192.452 160.959 192.286C161.018 192.121 161.033 191.97 161.078 191.82C161.123 191.67 161.19 191.542 161.228 191.421C161.265 191.301 161.34 191.218 161.37 191.151L161.437 191.045Z" fill="#B79370"/>
<path d="M133.848 171.445L133.542 172.152C133.325 172.588 133.042 173.228 132.661 173.972C132.28 174.717 131.869 175.589 131.405 176.514C130.942 177.44 130.472 178.432 130.046 179.448C129.62 180.463 129.194 181.463 128.858 182.456C128.686 182.938 128.522 183.411 128.395 183.863C128.261 184.283 128.148 184.709 128.059 185.141C127.954 185.54 127.902 185.893 127.842 186.247C127.772 186.527 127.732 186.815 127.723 187.104L127.633 187.856C127.633 187.856 127.633 187.578 127.536 187.104C127.503 186.81 127.488 186.513 127.491 186.217C127.476 185.83 127.494 185.442 127.543 185.058C127.596 184.637 127.633 184.179 127.737 183.697C127.82 183.19 127.932 182.687 128.074 182.193C128.376 181.128 128.751 180.085 129.194 179.072C129.65 178.049 130.165 177.048 130.688 176.131C131.211 175.213 131.757 174.409 132.22 173.709C132.683 173.01 133.109 172.461 133.393 172.069L133.848 171.445Z" fill="#B79370"/>
<path d="M228.185 51.3997V50.1136H203.533V36.237H226.878V51.3997H228.155H229.425V34.9509C229.424 34.6123 229.29 34.288 229.052 34.0484C228.814 33.8084 228.492 33.6731 228.155 33.6723H202.278C202.111 33.6719 201.946 33.7049 201.792 33.7695C201.638 33.8341 201.498 33.9289 201.381 34.0484C201.144 34.288 201.009 34.6123 201.008 34.9509V51.3997C201.008 51.7395 201.141 52.0655 201.379 52.3065C201.617 52.5475 201.94 52.6838 202.278 52.6858H228.185C228.521 52.6818 228.842 52.547 229.082 52.3098C229.321 52.0678 229.455 51.7408 229.455 51.3997H228.185Z" fill="#A3E8D2"/>
<path d="M201.479 35.9587L214.432 46.3455C214.658 46.5248 214.937 46.6224 215.224 46.6224C215.512 46.6224 215.791 46.5248 216.016 46.3455L228.97 35.9587C229.215 35.7402 229.368 35.4352 229.396 35.1067C229.424 34.7782 229.326 34.4514 229.122 34.1936C228.918 33.9359 228.623 33.7669 228.298 33.7217C227.974 33.6765 227.645 33.7584 227.379 33.9506L215.224 43.7281L203.062 33.9506C202.798 33.7391 202.461 33.6421 202.125 33.6809C201.79 33.7197 201.483 33.8911 201.273 34.1574C201.063 34.4237 200.967 34.7631 201.005 35.1009C201.044 35.4387 201.214 35.7473 201.479 35.9587Z" fill="#A3E8D2"/>
<path d="M215.232 215.196H202.965V217.257H215.232V215.196Z" fill="#D3D3D3"/>
<path d="M224.428 211.112H224.084C224.514 211.497 224.859 211.97 225.095 212.499C225.33 213.028 225.452 213.601 225.452 214.18C225.452 214.76 225.33 215.333 225.095 215.862C224.859 216.391 224.514 216.864 224.084 217.249H224.428C224.843 217.27 225.258 217.205 225.648 217.059C226.038 216.913 226.395 216.689 226.696 216.401C226.997 216.112 227.237 215.765 227.401 215.38C227.565 214.995 227.649 214.58 227.649 214.162C227.649 213.743 227.565 213.328 227.401 212.944C227.237 212.559 226.997 212.211 226.696 211.923C226.395 211.634 226.038 211.41 225.648 211.264C225.258 211.118 224.843 211.054 224.428 211.074V211.112Z" fill="#D3D3D3"/>
<path d="M224.428 214.165C224.428 214.777 224.247 215.375 223.91 215.884C223.572 216.392 223.092 216.788 222.531 217.022C221.969 217.256 221.351 217.317 220.756 217.197C220.16 217.077 219.613 216.782 219.184 216.349C218.755 215.916 218.463 215.364 218.345 214.764C218.227 214.164 218.289 213.542 218.523 212.977C218.756 212.413 219.151 211.93 219.657 211.592C220.163 211.253 220.757 211.073 221.365 211.074C221.768 211.073 222.167 211.153 222.54 211.308C222.912 211.463 223.251 211.691 223.535 211.978C223.82 212.265 224.046 212.606 224.199 212.982C224.352 213.357 224.43 213.76 224.428 214.165Z" fill="#D3D3D3"/>
<path d="M231.592 203.876H198.879V207.99H231.592V203.876Z" fill="#D3D3D3"/>
<path d="M229.545 220.34V219.648H200.918C200.74 219.648 200.564 219.613 200.399 219.544C200.234 219.475 200.085 219.374 199.959 219.247C199.834 219.12 199.734 218.969 199.667 218.803C199.599 218.637 199.565 218.459 199.566 218.279V201.816C199.566 201.454 199.708 201.107 199.962 200.85C200.215 200.594 200.559 200.449 200.918 200.447H229.545C229.904 200.449 230.248 200.594 230.502 200.85C230.755 201.107 230.897 201.454 230.897 201.816V218.279C230.898 218.459 230.864 218.637 230.796 218.803C230.729 218.969 230.629 219.12 230.504 219.247C230.378 219.374 230.229 219.475 230.064 219.544C229.9 219.613 229.723 219.648 229.545 219.648V221.032C229.904 221.032 230.259 220.961 230.59 220.823C230.922 220.684 231.222 220.481 231.476 220.225C231.729 219.97 231.93 219.666 232.066 219.332C232.203 218.998 232.273 218.641 232.272 218.279V201.816C232.273 201.454 232.203 201.097 232.066 200.763C231.93 200.429 231.729 200.125 231.476 199.87C231.222 199.614 230.922 199.411 230.59 199.273C230.259 199.134 229.904 199.063 229.545 199.063H200.918C200.194 199.065 199.499 199.355 198.987 199.871C198.475 200.387 198.186 201.086 198.184 201.816V218.279C198.186 219.009 198.475 219.708 198.987 220.224C199.499 220.74 200.194 221.03 200.918 221.032H229.545V220.34Z" fill="#D3D3D3"/>
<path d="M120.663 220.07H128.544C128.711 220.071 128.877 220.038 129.031 219.974C129.186 219.91 129.326 219.816 129.445 219.697C129.563 219.578 129.656 219.437 129.72 219.281C129.783 219.126 129.815 218.959 129.814 218.791V204.162C129.815 203.986 129.78 203.811 129.711 203.65C129.641 203.488 129.539 203.342 129.411 203.222L117.974 192.459C117.737 192.238 117.426 192.115 117.103 192.115C116.78 192.115 116.469 192.238 116.233 192.459L104.788 203.222C104.66 203.342 104.558 203.488 104.488 203.65C104.419 203.811 104.384 203.986 104.385 204.162V218.791C104.384 218.959 104.416 219.126 104.479 219.281C104.543 219.437 104.636 219.578 104.755 219.697C104.873 219.816 105.013 219.91 105.168 219.974C105.322 220.038 105.488 220.071 105.655 220.07H113.536C113.712 220.083 113.888 220.06 114.054 220.002C114.22 219.943 114.373 219.851 114.502 219.731C114.631 219.61 114.734 219.464 114.804 219.302C114.875 219.14 114.911 218.964 114.911 218.787C114.911 218.61 114.875 218.435 114.804 218.272C114.734 218.11 114.631 217.964 114.502 217.844C114.373 217.723 114.22 217.631 114.054 217.573C113.888 217.514 113.712 217.491 113.536 217.505H106.932V204.719L117.107 195.152L127.267 204.719V217.505H120.663C120.487 217.491 120.311 217.514 120.145 217.573C119.979 217.631 119.826 217.723 119.697 217.844C119.568 217.964 119.465 218.11 119.395 218.272C119.324 218.435 119.288 218.61 119.288 218.787C119.288 218.964 119.324 219.14 119.395 219.302C119.465 219.464 119.568 219.61 119.697 219.731C119.826 219.851 119.979 219.943 120.145 220.002C120.311 220.06 120.487 220.083 120.663 220.07Z" fill="#A3E8D2"/>
<path d="M114.821 218.791V209.961H119.393V218.791C119.418 219.114 119.562 219.416 119.799 219.636C120.035 219.856 120.345 219.979 120.667 219.979C120.989 219.979 121.299 219.856 121.535 219.636C121.771 219.416 121.916 219.114 121.94 218.791V208.675C121.941 208.507 121.909 208.34 121.846 208.184C121.782 208.029 121.689 207.888 121.571 207.769C121.453 207.65 121.312 207.556 121.158 207.492C121.003 207.428 120.837 207.395 120.67 207.396H113.544C113.376 207.393 113.21 207.424 113.054 207.487C112.899 207.551 112.757 207.645 112.639 207.764C112.52 207.883 112.427 208.026 112.364 208.182C112.301 208.339 112.271 208.506 112.274 208.675V218.791C112.298 219.114 112.443 219.416 112.679 219.636C112.915 219.856 113.225 219.979 113.547 219.979C113.869 219.979 114.179 219.856 114.415 219.636C114.652 219.416 114.796 219.114 114.821 218.791Z" fill="#A3E8D2"/>
<path d="M338.128 134.96C338.128 134.96 268.87 134.96 281.427 206.095C353.129 203.034 338.128 134.96 338.128 134.96Z" fill="#D3D3D3"/>
<path d="M333.37 175.371C333.37 175.371 325.809 176.123 318.204 176.921C314.409 177.327 310.6 177.733 307.746 178.064C306.304 178.229 305.101 178.38 304.242 178.492L303.981 178.53L321.529 156.508L338.001 154.703L337.904 153.831L322.283 155.56L337.105 136.961L336.417 136.411L313.311 165.391L310.779 142.075L309.905 142.173L312.542 166.346L297.399 185.359L291.199 162.796L290.377 163.021L296.742 186.157L286.702 198.777L287.381 199.326L303.144 179.523C303.302 179.487 303.461 179.459 303.622 179.44C305.863 179.094 313.334 178.289 320.214 177.567L329.425 176.62L332.361 176.326L333.459 176.214L333.37 175.371Z" fill="white"/>
<path d="M16.2483 152.281C16.2483 152.281 85.507 152.281 72.9417 223.416C1.27004 220.355 16.2483 152.281 16.2483 152.281Z" fill="#48D6AF"/>
<path d="M20.9995 192.692C20.9995 192.692 28.5671 193.445 36.1645 194.249C39.967 194.648 43.7769 195.054 46.6232 195.393C48.065 195.558 49.2677 195.701 50.1268 195.821L50.3883 195.859L32.8327 173.837L16.3753 172.002L16.4724 171.129L32.0931 172.852L17.2717 154.267L17.9515 153.718L41.0577 182.712L43.5977 159.396L44.4642 159.494L41.8346 183.682L56.9773 202.681L63.1777 180.117L63.992 180.35L57.6272 203.478L67.675 216.083L66.9952 216.632L51.2325 196.852L50.7469 196.769C48.5058 196.43 41.0353 195.618 34.1625 194.896L24.9514 193.971L22.0155 193.678L20.9173 193.565L20.9995 192.692Z" fill="white"/>
<path d="M95.0318 44.5479C94.5638 44.0886 94.1411 43.5848 93.7693 43.0437C93.6501 42.8747 93.5545 42.6899 93.4854 42.4946C93.4854 42.3969 93.4331 42.3066 93.4182 42.2314C93.4384 42.0722 93.4838 41.9173 93.5526 41.7726C93.8731 41.1802 94.284 40.6421 94.7703 40.1781C95.8902 39.1072 96.9478 37.9721 97.9378 36.7785C98.4921 36.0631 98.9494 35.2765 99.2974 34.4395C99.671 33.5151 99.8637 32.5267 99.8652 31.5288C99.8616 31.1404 99.7091 30.7685 99.4394 30.4908C99.1704 30.2182 98.8051 30.064 98.4234 30.0621H82.8923C82.5092 30.0676 82.1428 30.2211 81.8688 30.4908C81.5991 30.7685 81.4466 31.1404 81.443 31.5288C81.4565 33.0174 81.8807 34.473 82.6682 35.7331C83.7021 37.2638 84.9133 38.6651 86.2764 39.9073C86.7425 40.3684 87.1652 40.872 87.5389 41.4116C87.6584 41.5816 87.7563 41.7661 87.8303 41.9606C87.8612 42.0455 87.8812 42.1339 87.89 42.2239C87.8755 42.3857 87.8325 42.5436 87.763 42.6902C87.4354 43.2776 87.0224 43.8125 86.5379 44.2771C85.4183 45.351 84.3608 46.4886 83.3704 47.6842C82.8212 48.3991 82.3667 49.1829 82.0182 50.0158C81.6414 50.9421 81.4461 51.933 81.443 52.934C81.4485 53.3197 81.6009 53.6886 81.8688 53.9644C82.0024 54.101 82.1617 54.2093 82.3375 54.2829C82.5133 54.3565 82.7019 54.394 82.8923 54.3931H98.4234C98.6126 54.3939 98.8001 54.3563 98.9746 54.2826C99.1492 54.209 99.3072 54.1008 99.4394 53.9644C99.7073 53.6886 99.8597 53.3197 99.8652 52.934C99.8577 51.4432 99.4359 49.9842 98.6475 48.7222C97.6158 47.1875 96.4015 45.7857 95.0318 44.5479ZM85.6862 35.0186C85.2916 34.5138 84.9674 33.9571 84.7226 33.3639C84.6736 33.246 84.6312 33.1255 84.5955 33.0029H96.7425C96.5955 33.4361 96.4027 33.8522 96.1673 34.2439C95.2433 35.5741 94.1704 36.793 92.9699 37.8766C92.3663 38.4643 91.8231 39.1119 91.3489 39.8096C91.1053 40.1696 90.9071 40.5587 90.7587 40.9678C90.7151 41.0745 90.6826 41.1854 90.6616 41.2988C90.587 41.0419 90.4946 40.7906 90.3852 40.5466C89.9373 39.6624 89.3465 38.8592 88.6371 38.17C87.5996 37.1719 86.6147 36.1201 85.6862 35.0186ZM84.5955 51.4599C84.7352 51.0297 84.9258 50.6181 85.1633 50.2339C86.0825 48.8998 87.153 47.6781 88.3532 46.5937C88.9594 46.009 89.5051 45.3639 89.9818 44.6682C90.2211 44.3031 90.4191 43.912 90.5719 43.5025C90.6146 43.3974 90.6495 43.2893 90.6765 43.1791C90.7426 43.4367 90.8301 43.6883 90.938 43.9312C91.3949 44.8117 91.9874 45.6139 92.6935 46.3079C93.7481 47.3005 94.7458 48.3526 95.6817 49.4592C96.0768 49.9678 96.4033 50.5267 96.6529 51.1214L96.7874 51.4749L84.5955 51.4599Z" fill="#D3D3D3"/>
<path d="M186.538 16.2307H185.559V34.3642L178.835 42.9309H166.487V17.2085H186.538V16.2307V15.2454H165.516C165.256 15.2448 165.006 15.3475 164.821 15.5312C164.64 15.7185 164.538 15.9693 164.537 16.2307V43.9462C164.538 44.2053 164.64 44.4536 164.821 44.6382C164.911 44.7315 165.019 44.8056 165.139 44.856C165.258 44.9064 165.386 44.9321 165.516 44.9315H179.329C179.473 44.9282 179.615 44.8927 179.744 44.8277C179.873 44.7627 179.986 44.6697 180.076 44.5554L187.322 35.3495C187.456 35.1752 187.53 34.961 187.531 34.7403V16.2307C187.533 15.9848 187.445 15.7467 187.285 15.5613C187.098 15.3803 186.849 15.278 186.59 15.2755L186.538 16.2307Z" fill="#D3D3D3"/>
<path d="M179.329 43.9462H180.3V35.7256H184.55L178.574 43.337L179.321 43.9462L180.068 44.5554L187.315 35.3495C187.429 35.2048 187.5 35.0305 187.52 34.8468C187.539 34.6632 187.507 34.4776 187.427 34.3116C187.346 34.1453 187.22 34.0051 187.065 33.9067C186.909 33.8084 186.729 33.7558 186.545 33.755H179.306C179.046 33.7544 178.797 33.8571 178.611 34.0408C178.43 34.2281 178.328 34.4789 178.328 34.7403V43.9462C178.328 44.1502 178.391 44.349 178.509 44.5149C178.627 44.6808 178.793 44.8054 178.985 44.8713C179.175 44.941 179.383 44.948 179.578 44.8912C179.772 44.8345 179.944 44.7169 180.068 44.5554L179.329 43.9462Z" fill="#D3D3D3"/>
<path d="M169.363 22.1649H182.952V20.2018H169.363" fill="#D3D3D3"/>
<path d="M169.363 25.9179H182.952V23.9474H169.363" fill="#D3D3D3"/>
<path d="M169.363 29.6635H180.128V27.7005H169.363" fill="#D3D3D3"/>
<path d="M304.205 49.4517L303.503 49.1885C303.754 48.5007 303.952 47.794 304.093 47.075L304.84 47.2254C304.688 47.9836 304.476 48.7281 304.205 49.4517ZM305.071 45.6911L304.324 45.5933C304.414 44.9089 304.489 44.1643 304.534 43.337L305.281 43.3821C305.236 44.247 305.169 45.0142 305.071 45.7137V45.6911ZM305.348 41.9305H304.601C304.601 41.4642 304.601 40.9979 304.601 40.5316C304.601 40.2458 304.601 39.9675 304.601 39.6892H305.348C305.348 39.975 305.348 40.2608 305.348 40.5466C305.37 40.9828 305.363 41.4567 305.318 41.923L305.348 41.9305ZM304.601 38.1699C304.601 37.4178 304.541 36.6657 304.511 35.9136H305.258C305.258 36.6657 305.318 37.4178 305.348 38.1699H304.601ZM304.436 34.4093V33.7625C304.436 33.2285 304.377 32.702 304.332 32.1756L305.079 32.1079C305.131 32.6419 305.169 33.1834 305.191 33.7249V34.3717L304.436 34.4093ZM304.138 30.6939C304.041 29.9418 303.921 29.1897 303.779 28.4902L304.526 28.3473C304.668 29.0994 304.795 29.8515 304.892 30.6036L304.138 30.6939ZM215.433 28.4375L214.686 28.2721C214.851 27.5199 215 26.813 215.149 26.0759L215.896 26.2188C215.74 26.9859 215.59 27.7305 215.418 28.4601L215.433 28.4375ZM303.458 27.0236C303.286 26.2714 303.084 25.587 302.86 24.88L303.607 24.6544C303.831 25.4065 304.033 26.1135 304.212 26.8506L303.458 27.0236ZM268.645 26.5497H268.309V25.7976C269.012 25.8355 269.716 25.7438 270.386 25.5268L270.618 26.2413C269.977 26.4569 269.306 26.5686 268.631 26.5723L268.645 26.5497ZM266.755 26.3015C266.358 26.1984 265.969 26.0677 265.59 25.9104C265.246 25.7702 264.911 25.6069 264.589 25.4215L264.97 24.7672C265.257 24.939 265.556 25.0874 265.866 25.211C266.216 25.3571 266.575 25.4777 266.942 25.572L266.755 26.3015ZM272.074 25.5494L271.671 24.9176C272.261 24.5299 272.78 24.0411 273.202 23.4736L273.8 23.9248C273.321 24.5705 272.731 25.1256 272.059 25.5644L272.074 25.5494ZM216.18 24.7446L215.433 24.6093C215.568 23.8571 215.71 23.105 215.859 22.3529L216.606 22.5033C216.419 23.2855 216.307 24.0301 216.165 24.7597L216.18 24.7446ZM263.334 24.4739C262.764 23.9249 262.285 23.2876 261.915 22.5861L262.572 22.2326C262.901 22.8624 263.33 23.4339 263.842 23.9248L263.334 24.4739ZM302.39 23.4811C302.136 22.7816 301.859 22.0821 301.56 21.4128L302.24 21.1044C302.546 21.7963 302.83 22.5033 303.092 23.2178L302.39 23.4811ZM274.614 22.5785L273.942 22.2551C274.248 21.6051 274.466 20.9172 274.592 20.2094L275.339 20.3448C275.19 21.1235 274.942 21.8795 274.599 22.5936L274.614 22.5785ZM261.309 21.142C261.083 20.4072 260.93 19.6512 260.854 18.8856L261.601 18.818C261.668 19.5405 261.811 20.2539 262.027 20.9464L261.309 21.142ZM216.92 21.0743L216.173 20.9088C216.36 20.1041 216.539 19.4046 216.741 18.6976L217.488 18.9157C217.264 19.5926 217.084 20.2996 216.905 21.0894L216.92 21.0743ZM300.918 20.074C300.582 19.4121 300.231 18.7503 299.857 18.1185L300.5 17.7349C300.881 18.3817 301.247 19.0586 301.583 19.7355L300.918 20.074ZM275.436 18.8029H274.689V18.6299C274.687 18.1462 274.647 17.6633 274.57 17.1859C274.57 17.0054 274.51 16.8173 274.48 16.6443L275.227 16.4939C275.264 16.6819 275.294 16.8775 275.324 17.0655C275.407 17.5828 275.45 18.1059 275.451 18.6299L275.436 18.8029ZM217.914 17.5168L217.211 17.2611C217.413 16.697 217.63 16.1479 217.854 15.629L218.078 15.1476L218.75 15.4635C218.676 15.6215 218.608 15.7719 218.541 15.9298C218.309 16.4337 218.1 16.9677 217.914 17.5168ZM261.541 17.3363H260.794C260.812 16.5649 260.884 15.7958 261.011 15.0348L261.758 15.1627C261.629 15.8806 261.554 16.6071 261.534 17.3363H261.541ZM299.08 16.8625C298.677 16.2457 298.243 15.6365 297.795 15.0498L298.393 14.5911C298.849 15.1927 299.289 15.817 299.708 16.4488L299.08 16.8625ZM274.174 15.2078C273.966 14.5039 273.703 13.8173 273.389 13.1545L274.062 12.8311C274.391 13.529 274.668 14.2505 274.891 14.9897L274.174 15.2078ZM219.408 14.1473L218.758 13.7863C219.124 13.1169 219.505 12.4626 219.953 11.8308L220.566 12.2595C220.155 12.8687 219.766 13.5005 219.408 14.1473ZM296.861 13.8916C296.391 13.3275 295.883 12.7785 295.367 12.252L295.905 11.7255C296.428 12.2595 296.944 12.8311 297.399 13.4102L296.861 13.8916ZM262.049 13.7111L261.302 13.5155C261.499 12.7715 261.749 12.0426 262.049 11.3344L262.744 11.6202C262.464 12.3001 262.232 12.9988 262.049 13.7111ZM272.694 11.8684C272.314 11.2417 271.89 10.6435 271.424 10.0784L272 9.597C272.488 10.1905 272.932 10.8189 273.329 11.4773L272.694 11.8684ZM294.307 11.2216C293.769 10.7177 293.201 10.2288 292.626 9.76999L293.089 9.18333C293.679 9.64964 294.262 10.1536 294.815 10.6876L294.307 11.2216ZM221.44 11.0711L220.857 10.6048C221.32 10.0107 221.828 9.43153 222.351 8.88249L222.889 9.40144C222.396 9.93545 221.895 10.492 221.44 11.0486V11.0711ZM263.379 10.319L262.721 9.96553C263.088 9.28007 263.521 8.63264 264.014 8.03259L264.589 8.52147C264.127 9.07014 263.721 9.66489 263.379 10.2965V10.319ZM270.446 9.01035C269.934 8.47605 269.39 7.9737 268.817 7.50611L269.28 6.91194C269.875 7.37842 270.442 7.88075 270.976 8.41617L270.446 9.01035ZM291.445 8.90505C290.848 8.47634 290.228 8.06267 289.6 7.6791L289.981 7.03228C290.631 7.4309 291.266 7.85209 291.879 8.28831L291.445 8.90505ZM223.942 8.39361L223.442 7.83704C223.998 7.30569 224.582 6.80361 225.19 6.33281L225.638 6.9345C225.048 7.40081 224.48 7.87465 223.942 8.37105V8.39361ZM265.59 7.47603L265.09 6.91946C265.501 6.53451 265.935 6.17532 266.389 5.84393L265.762 5.47539L266.128 4.82105C266.808 5.20463 267.458 5.57317 268.063 6.03196L267.637 6.6487L267.084 6.28016C266.558 6.63326 266.058 7.02545 265.59 7.45346V7.47603ZM288.315 6.94202C288.024 6.77656 287.732 6.62613 287.426 6.47571C287.12 6.32529 286.679 6.11469 286.336 5.94923L286.642 5.2648C287.023 5.43779 287.389 5.61829 287.762 5.7988C288.136 5.97931 288.375 6.1147 288.674 6.28016L288.315 6.94202ZM226.833 6.10717L226.422 5.48291C227.035 5.06925 227.692 4.67063 228.357 4.29457L228.723 4.94891C228.073 5.29489 227.438 5.67847 226.833 6.08461V6.10717ZM268.571 5.35506L268.227 4.68567C268.911 4.33657 269.62 4.03989 270.349 3.79817L270.58 4.55029C269.891 4.77289 269.219 5.04692 268.571 5.3701V5.35506ZM284.968 5.35506C284.281 5.09934 283.579 4.85866 282.877 4.65559L283.078 3.90347C283.825 4.11406 284.528 4.35474 285.237 4.65559L284.968 5.35506ZM264.455 4.76088C263.812 4.43747 263.132 4.1291 262.438 3.85082L262.721 3.15135C263.431 3.44468 264.126 3.75304 264.791 4.08398L264.455 4.76088ZM281.45 4.28705C280.703 4.12158 279.993 3.9862 279.276 3.88091L279.381 3.12879C280.128 3.23409 280.875 3.37698 281.622 3.54245L281.45 4.28705ZM230.023 4.27953L229.694 3.60262C230.367 3.27169 231.062 2.96332 231.771 2.67752L232.048 3.36947C231.36 3.61014 230.681 3.91851 230.023 4.27953ZM271.985 4.16671L271.82 3.41459C272.559 3.24242 273.307 3.11682 274.062 3.03853L274.136 3.79065C273.413 3.86013 272.695 3.97315 271.985 4.12911V4.16671ZM277.812 3.77561C277.081 3.7183 276.348 3.69821 275.615 3.71544V2.96332C276.375 2.94232 277.136 2.96241 277.894 3.02349L277.812 3.77561ZM261.055 3.36194C260.376 3.11375 259.666 2.88059 258.941 2.67L259.151 1.91788C259.898 2.13599 260.645 2.37667 261.309 2.62487L261.055 3.36194ZM233.415 2.8505L233.168 2.09839C233.87 1.85771 234.595 1.62455 235.327 1.42148L235.529 2.1736C234.827 2.34658 234.117 2.57222 233.43 2.8129L233.415 2.8505ZM257.5 2.27138C256.797 2.09087 256.065 1.9254 255.333 1.77498L255.483 1.02286C256.23 1.17328 256.977 1.34627 257.686 1.5343L257.5 2.27138ZM236.956 1.81258L236.791 1.06047C237.538 0.88748 238.285 0.737058 239.033 0.609198L239.16 1.36132C238.42 1.45909 237.688 1.60951 236.971 1.77498L236.956 1.81258ZM253.876 1.48917C253.129 1.36131 252.382 1.24849 251.635 1.15824L251.732 0.406123C252.479 0.496377 253.226 0.609198 253.973 0.744579L253.876 1.48917ZM240.594 1.15072L240.497 0.3986C241.244 0.293304 241.991 0.218092 242.738 0.157923L242.798 0.91004C242.08 0.932604 241.341 1.01534 240.609 1.11311L240.594 1.15072ZM250.201 0.985256C249.454 0.917566 248.707 0.864918 247.96 0.827313L247.997 0.0751953C248.744 0.0751953 249.491 0.165445 250.238 0.240656L250.201 0.985256ZM244.284 0.827313V0.0751953C244.889 0.0751953 245.494 0.0751953 246.1 0.0751953H246.54V0.827313H246.107C245.494 0.752101 244.897 0.75962 244.299 0.789704L244.284 0.827313Z" fill="#C9F4E7"/>
<path d="M26.0794 64.9077L25.6013 64.3436L26.169 63.8547L26.6695 64.4489L26.0794 64.9077ZM24.6301 63.1929C24.1595 62.6213 23.6814 62.0346 23.2032 61.4329L23.7934 60.9741C24.2566 61.5683 24.7347 62.1474 25.2053 62.7115L24.6301 63.1929ZM22.2919 60.2295C21.8137 59.5827 21.3879 58.9735 20.992 58.3643L21.6195 57.9506C22.008 58.5448 22.4263 59.1465 22.8895 59.7858L22.2919 60.2295ZM20.2001 57.0706C19.8042 56.3787 19.4531 55.7018 19.1393 55.0399L19.8191 54.724C20.1179 55.3633 20.4616 56.0252 20.8426 56.6871L20.2001 57.0706ZM18.5566 53.6259C18.285 52.9057 18.0653 52.1668 17.8992 51.4147L18.6463 51.2568C18.8042 51.9724 19.0113 52.6761 19.2663 53.3627L18.5566 53.6259ZM17.6452 49.8654C17.6004 49.4442 17.5705 49.0155 17.563 48.5943V48.2333C17.563 48.0076 17.563 47.782 17.563 47.5564H18.3101C18.3101 47.7745 18.3101 47.9926 18.3101 48.2107V48.5567C18.3101 48.9553 18.3101 49.3614 18.3923 49.7601L17.6452 49.8654ZM18.3923 46.1048L17.6452 46.0296C17.7266 45.2708 17.8513 44.5175 18.0187 43.7732L18.7658 43.9462C18.6172 44.6687 18.5124 45.3996 18.452 46.1349L18.3923 46.1048ZM19.1393 42.5172L18.4296 42.2765C18.6736 41.546 18.9707 40.8345 19.3186 40.148L19.9835 40.494C19.6682 41.1563 19.4059 41.8429 19.1991 42.5473L19.1393 42.5172ZM20.7156 39.2379L20.0955 38.8168C20.5232 38.1761 21.0029 37.5723 21.5299 37.0117L22.0752 37.5231C21.5847 38.0648 21.1423 38.6487 20.7529 39.268L20.7156 39.2379ZM23.1285 36.5303L22.6504 35.9512C23.2405 35.456 23.8701 35.0107 24.533 34.6199L24.914 35.2668C24.297 35.6489 23.7123 36.0816 23.1659 36.5604L23.1285 36.5303ZM26.1989 34.5899L25.8851 33.9054C26.5812 33.5851 27.2974 33.3112 28.0292 33.0856L28.2458 33.8377C27.5596 34.0536 26.8883 34.3149 26.2363 34.6199L26.1989 34.5899ZM44.4268 34.2213V33.4692C45.1493 33.4665 45.8698 33.3935 46.5783 33.2511L46.7277 34.0032C45.9832 34.161 45.225 34.2441 44.4642 34.2514L44.4268 34.2213ZM42.9327 34.1762C42.2679 34.1311 41.5507 34.0559 40.6916 33.9355L40.7887 33.1834C41.6478 33.2962 42.3426 33.3714 42.9925 33.4166L42.9327 34.1762ZM39.1975 33.7099L38.8464 33.6572C38.2338 33.5595 37.6138 33.4617 36.9863 33.379L37.0908 32.6268C37.7184 32.7096 38.3459 32.8073 38.9659 32.9051L39.3096 32.9578L39.1975 33.7099ZM48.2517 33.6121L47.9828 32.9126C48.6422 32.6374 49.2626 32.2758 49.828 31.8371L50.2762 32.4388C49.657 32.92 48.976 33.3147 48.2517 33.6121ZM29.7026 33.4993L29.5382 32.7472C29.8445 32.6795 30.1508 32.6193 30.4645 32.5667C30.907 32.4875 31.3534 32.4323 31.8018 32.4012L31.8615 33.1533C31.4208 33.1533 30.9949 33.2436 30.5915 33.3113C30.1881 33.379 29.9939 33.4015 29.7026 33.4692V33.4993ZM35.522 33.2586C34.7152 33.1759 34.028 33.1308 33.3183 33.1157V32.3636C34.013 32.3636 34.7601 32.4238 35.5594 32.5065L35.522 33.2586ZM51.4491 31.4234L50.9112 30.9045C51.41 30.3788 51.8555 29.8044 52.2409 29.1897L52.8685 29.5958C52.4515 30.2378 51.9763 30.8396 51.4491 31.3934V31.4234ZM53.623 28.2495L52.9506 27.9111C53.2793 27.2417 53.5707 26.5347 53.8396 25.8728L54.5344 26.1511C54.258 26.7979 53.9592 27.5275 53.623 28.2194V28.2495ZM88.3606 26.9634C88.1739 26.5046 87.9946 26.0458 87.8078 25.5795L87.5314 24.8274L88.2262 24.5491L88.5026 25.3012L89.0479 26.6776L88.3606 26.9634ZM55.0573 24.7296L54.37 24.4438C54.624 23.812 54.9378 23.0749 55.3113 22.3604L55.9687 22.7064C55.64 23.3984 55.3412 24.1204 55.0573 24.7296ZM86.9338 23.451C86.6436 22.7718 86.3169 22.1089 85.9551 21.4654L86.6051 21.0894C86.9781 21.7574 87.3148 22.4453 87.6136 23.1502L86.9338 23.451ZM56.7158 21.4579L56.1032 21.0292C56.1704 20.9314 56.2376 20.8336 56.3123 20.7434C56.7126 20.2167 57.163 19.7305 57.657 19.2918L58.1501 19.8559C57.6945 20.2606 57.2792 20.7089 56.91 21.1947C56.8726 21.2849 56.8054 21.3676 56.7456 21.4579H56.7158ZM85.1633 20.247C84.7283 19.6657 84.2269 19.1381 83.6692 18.6751L84.1398 18.0959C84.7357 18.599 85.2721 19.1693 85.7385 19.7957L85.1633 20.247ZM59.2931 18.9609L58.8747 18.3366C59.5066 17.904 60.1682 17.5169 60.8544 17.1783L61.1831 17.8553C60.5379 18.1792 59.9163 18.5486 59.3229 18.9609H59.2931ZM82.5113 17.8553C81.8813 17.4851 81.2245 17.1633 80.5465 16.8925L80.8229 16.1931C81.5348 16.4783 82.2241 16.8178 82.8848 17.2084L82.5113 17.8553ZM62.5278 17.2611L62.2514 16.5616C62.9386 16.2909 63.6633 16.0427 64.4103 15.8095L64.612 16.5616C63.9054 16.7574 63.2097 16.9909 62.5278 17.2611ZM79.172 16.4112C78.4713 16.195 77.7577 16.0242 77.0354 15.8997L77.1624 15.1476C77.9184 15.285 78.6666 15.4633 79.4035 15.6816L79.172 16.4112ZM66.0389 16.1931L65.882 15.441C66.6291 15.2755 67.3761 15.1401 68.1231 15.0423L68.2277 15.7945C67.5255 15.8997 66.7934 16.0276 66.0688 16.1931H66.0389ZM75.5787 15.6816C74.8316 15.5989 74.1294 15.5463 73.3375 15.5237V14.7716C74.0846 14.7716 74.8765 14.8468 75.5787 14.937V15.6816ZM69.6845 15.6365L69.6172 14.8844C70.3643 14.8167 71.1113 14.7716 71.8584 14.7565V15.5086C71.2084 15.5613 70.4614 15.5613 69.7144 15.6365H69.6845Z" fill="#C9F4E7"/>
<path d="M152.704 70.338V69.5858C153.438 69.5679 154.171 69.5126 154.9 69.4204L154.99 70.1725C154.231 70.2693 153.468 70.3245 152.704 70.338ZM151.21 70.338C150.458 70.3011 149.71 70.2182 148.969 70.0898L149.096 69.3377C149.817 69.4611 150.546 69.5415 151.277 69.5783L151.21 70.338ZM156.499 69.9544L156.357 69.2023C157.104 69.0594 157.799 68.8864 158.501 68.6758L158.718 69.4279C157.97 69.6009 157.223 69.7889 156.476 69.9318L156.499 69.9544ZM160.152 68.924L159.89 68.217C160.579 67.962 161.252 67.6682 161.907 67.337L162.244 68.0064C161.556 68.3446 160.85 68.6434 160.129 68.9014L160.152 68.924ZM163.581 67.2543L163.185 66.615C163.795 66.2329 164.364 65.7866 164.881 65.2837L165.404 65.8177C164.842 66.3555 164.223 66.8296 163.558 67.2317L163.581 67.2543ZM166.427 64.6444L165.822 64.1932C165.985 63.9779 166.137 63.7544 166.278 63.5238C166.016 63.4561 165.762 63.3884 165.531 63.3057L165.755 62.5912C166.059 62.6898 166.368 62.7726 166.681 62.8394C166.763 62.6664 166.845 62.5009 166.928 62.3204L167.607 62.6213L167.451 62.9747L167.869 63.0199L167.802 63.772C167.563 63.772 167.324 63.7193 167.055 63.6742C166.858 64.0038 166.641 64.3203 166.405 64.6219L166.427 64.6444ZM169.341 63.7645L169.266 63.0123C169.424 62.9958 169.581 62.9707 169.736 62.9371C170.272 62.8354 170.794 62.6687 171.29 62.4407L171.604 63.1176C171.058 63.3768 170.48 63.5639 169.886 63.6742C169.711 63.7082 169.534 63.7308 169.355 63.7419L169.341 63.7645ZM164.066 62.7341C163.355 62.3927 162.7 61.9438 162.124 61.4028L162.64 60.8613C163.162 61.3463 163.754 61.7495 164.395 62.0572L164.066 62.7341ZM172.949 62.2678L172.463 61.6961C172.989 61.233 173.416 60.6676 173.718 60.034L174.391 60.3724C174.029 61.0873 173.532 61.7237 172.926 62.2452L172.949 62.2678ZM168.123 61.1621L167.376 60.9666C167.555 60.2629 167.658 59.5416 167.682 58.8155H168.429C168.402 59.5997 168.291 60.3788 168.1 61.1396L168.123 61.1621ZM161.138 60.1092C160.874 59.624 160.714 59.0886 160.667 58.5373C160.667 58.4395 160.667 58.3342 160.667 58.2364C160.656 58.0586 160.656 57.8802 160.667 57.7024L161.414 57.8002C161.407 57.9455 161.407 58.0911 161.414 58.2364C161.414 58.3191 161.414 58.4019 161.414 58.4771C161.453 58.9252 161.582 59.3605 161.795 59.7557L161.138 60.1092ZM174.936 58.8757L174.189 58.6726C174.37 57.9675 174.49 57.2477 174.547 56.5216L175.295 56.5817C175.234 57.356 175.106 58.1236 174.914 58.8757H174.936ZM167.652 57.3715C167.59 56.6744 167.384 55.9981 167.047 55.3859L167.682 54.9948C168.089 55.684 168.344 56.4537 168.429 57.2511L167.652 57.3715ZM161.818 56.4915L161.138 56.1756C161.472 55.4371 161.968 54.7841 162.587 54.2652L163.058 54.8444C162.524 55.2865 162.093 55.841 161.795 56.4689L161.818 56.4915ZM175.399 55.0775H174.652C174.652 54.8368 174.652 54.5962 174.652 54.3254C174.652 53.814 174.652 53.31 174.652 52.8212H175.399C175.399 53.3226 175.399 53.824 175.399 54.3254C175.384 54.5661 175.384 54.8143 175.377 55.0549L175.399 55.0775ZM166.121 54.4909C165.551 54.1527 164.872 54.0554 164.231 54.2201L164.044 53.468C164.452 53.3594 164.877 53.3334 165.295 53.3915C165.713 53.4496 166.116 53.5906 166.479 53.8064L166.121 54.4909ZM174.585 51.2944C174.585 51.001 174.585 50.7077 174.585 50.4219C174.585 49.9255 174.585 49.4517 174.63 49.0079L175.377 49.0606C175.377 49.4893 175.332 49.9481 175.332 50.4219C175.332 50.7002 175.332 50.986 175.332 51.2793L174.585 51.2944Z" fill="#C9F4E7"/>
<path d="M124.592 54.0923L123.845 54.0396C123.845 53.8817 123.845 53.7237 123.845 53.5658C123.842 53.0112 123.777 52.4586 123.651 51.9187L124.398 51.7457C124.539 52.342 124.612 52.9527 124.615 53.5658C124.607 53.7463 124.6 53.9193 124.592 54.0923ZM123.218 50.5498C122.934 49.8797 122.589 49.2376 122.187 48.6319L122.807 48.2182C123.239 48.8597 123.606 49.5424 123.905 50.2565L123.218 50.5498ZM121.313 47.4511C120.847 46.8826 120.348 46.3426 119.819 45.834L120.334 45.2925C120.884 45.8239 121.402 46.3864 121.888 46.9773L121.313 47.4511ZM118.728 44.8412C118.183 44.3749 117.6 43.9161 116.987 43.4799L117.413 42.8632C118.048 43.3144 118.653 43.7883 119.214 44.2621L118.728 44.8412ZM115.74 42.6526C115.127 42.254 114.477 41.9005 113.827 41.5319L114.179 40.8701C114.851 41.2235 115.508 41.6222 116.143 42.0133L115.74 42.6526ZM112.505 40.8625C111.825 40.5466 111.138 40.2533 110.466 39.9976L110.727 39.2981C111.422 39.5539 112.124 39.8547 112.826 40.1856L112.505 40.8625ZM109.076 39.5238C108.375 39.308 107.662 39.1347 106.94 39.0048L107.067 38.2527C107.824 38.3886 108.573 38.572 109.308 38.8017L109.076 39.5238ZM105.498 38.8243C105.162 38.8056 104.825 38.8056 104.489 38.8243V38.0722C104.85 38.0536 105.212 38.0536 105.573 38.0722L105.498 38.8243Z" fill="#C9F4E7"/>
<path d="M162.759 109.486H162.206V108.734C162.953 108.734 163.7 108.734 164.447 108.734V109.486C163.894 109.471 163.327 109.486 162.759 109.486ZM160.697 109.433C159.95 109.395 159.203 109.335 158.456 109.253L158.538 108.5C159.285 108.576 160.032 108.636 160.779 108.673L160.697 109.433ZM165.979 109.35L165.912 108.598C166.659 108.531 167.406 108.448 168.153 108.342L168.265 109.095C167.495 109.2 166.741 109.29 165.979 109.35ZM156.947 109.065L156.514 108.997L156.633 108.245L157.059 108.312L156.947 109.065ZM169.721 108.839L169.572 108.087C170.319 107.936 171.066 107.763 171.724 107.568L171.925 108.32C171.223 108.508 170.476 108.688 169.721 108.824V108.839ZM173.375 107.854L173.128 107.101C173.822 106.861 174.503 106.582 175.167 106.267L175.489 106.951C174.801 107.291 174.095 107.592 173.375 107.854ZM176.833 106.274L176.46 105.62C177.091 105.253 177.695 104.84 178.268 104.386L178.731 104.973C178.129 105.454 177.492 105.889 176.826 106.274H176.833ZM179.874 103.943L179.343 103.409C179.859 102.896 180.324 102.334 180.733 101.731L181.346 102.16C180.91 102.798 180.417 103.395 179.874 103.943ZM182.115 100.821L181.45 100.483C181.777 99.8324 182.042 99.1525 182.242 98.4521L182.989 98.6627C182.771 99.408 182.484 100.131 182.13 100.821H182.115Z" fill="#C9F4E7"/>
<path d="M149.835 235.796C149.454 235.796 149.088 235.796 148.7 235.796V235.044C149.447 235.044 150.194 235.044 150.941 235.044V235.796C150.59 235.789 150.209 235.796 149.835 235.796ZM147.191 235.691C146.444 235.631 145.697 235.541 144.949 235.435L145.062 234.683C145.809 234.788 146.556 234.871 147.265 234.931L147.191 235.691ZM152.472 235.691L152.412 234.939C153.159 234.879 153.907 234.788 154.609 234.676L154.721 235.428C153.981 235.533 153.227 235.623 152.472 235.683V235.691ZM143.448 235.18C142.701 235.044 141.954 234.879 141.207 234.691L141.394 233.939C142.103 234.119 142.835 234.285 143.56 234.42L143.448 235.18ZM156.215 235.18L156.066 234.427C156.775 234.285 157.5 234.112 158.224 233.908L158.419 234.661C157.679 234.834 156.94 235.007 156.215 235.18ZM181.248 234.826C180.606 234.826 179.964 234.826 179.314 234.781L179.351 234.029C179.986 234.029 180.621 234.074 181.248 234.074H181.57V234.826H181.248ZM183.086 234.781L183.049 234.029C183.796 233.991 184.543 233.931 185.29 233.848L185.372 234.6C184.595 234.661 183.841 234.721 183.086 234.758V234.781ZM177.812 234.676C177.065 234.608 176.318 234.518 175.571 234.412L175.675 233.66C176.423 233.766 177.17 233.848 177.917 233.916L177.812 234.676ZM186.836 234.397L186.724 233.645C187.471 233.525 188.218 233.389 188.898 233.224L189.063 233.976C188.338 234.112 187.591 234.254 186.836 234.375V234.397ZM139.772 234.307C139.025 234.089 138.331 233.848 137.628 233.593L137.882 232.886C138.58 233.141 139.282 233.374 139.989 233.585L139.772 234.307ZM159.86 234.224L159.636 233.472C160.346 233.247 161.048 232.998 161.728 232.72L161.997 233.42C161.31 233.713 160.593 233.969 159.868 234.202L159.86 234.224ZM174.054 234.164C173.718 234.104 173.382 234.044 173.046 233.969L171.843 233.713L172.007 232.961L173.188 233.217L174.189 233.412L174.054 234.164ZM190.489 233.6L190.295 232.848C191.005 232.652 191.722 232.434 192.417 232.194L192.656 232.908C191.983 233.156 191.251 233.382 190.527 233.578L190.489 233.6ZM170.364 233.359C169.617 233.171 168.87 232.961 168.183 232.75L168.399 231.998C169.094 232.209 169.811 232.412 170.543 232.6L170.364 233.359ZM136.194 233.044C135.492 232.758 134.797 232.442 134.125 232.118L134.446 231.442C135.111 231.757 135.791 232.066 136.478 232.344L136.194 233.044ZM163.364 232.886L163.065 232.194C163.603 231.96 164.134 231.705 164.642 231.442L164.94 230.757C165.583 231.035 166.278 231.306 167.002 231.569L166.756 232.276C166.27 232.103 165.792 231.923 165.336 231.735L165.419 231.893C164.791 232.216 164.126 232.547 163.379 232.863L163.364 232.886ZM194.083 232.412L193.799 231.712C194.486 231.434 195.166 231.126 195.808 230.795L196.152 231.464C195.502 231.787 194.822 232.103 194.12 232.389L194.083 232.412ZM132.81 231.419C132.145 231.065 131.48 230.667 130.838 230.306L131.226 229.659C131.854 230.035 132.504 230.411 133.161 230.75L132.81 231.419ZM166.771 231.126L166.39 230.479C167.04 230.088 167.66 229.682 168.235 229.26L168.668 229.87C168.078 230.298 167.436 230.727 166.771 231.126ZM163.304 230.765C162.622 230.416 161.966 230.019 161.34 229.576L161.765 228.967C162.366 229.384 162.992 229.76 163.641 230.095L163.304 230.765ZM197.519 230.704L197.138 230.058C197.758 229.689 198.378 229.305 198.983 228.847L199.417 229.456C198.797 229.915 198.162 230.328 197.519 230.704ZM129.538 229.501C128.91 229.087 128.283 228.651 127.678 228.207L128.119 227.606C128.709 228.042 129.329 228.463 129.949 228.869L129.538 229.501ZM169.878 228.929L169.4 228.358C169.959 227.885 170.493 227.383 170.999 226.854L171.544 227.365C171.021 227.922 170.462 228.445 169.871 228.929H169.878ZM160.167 228.606C159.584 228.078 159.08 227.468 158.673 226.793L159.323 226.41C159.689 227.024 160.144 227.579 160.675 228.057L160.167 228.606ZM200.664 228.531L200.194 227.944C200.746 227.5 201.299 227.019 201.867 226.485L202.375 227.042C201.755 227.583 201.195 228.072 200.627 228.531H200.664ZM126.535 227.297C125.945 226.824 125.354 226.335 124.794 225.838L125.287 225.274C125.84 225.763 126.415 226.244 126.998 226.703L126.535 227.297ZM172.53 226.154L171.933 225.695C172.37 225.131 172.757 224.53 173.091 223.898L173.756 224.251C173.396 224.916 172.986 225.552 172.53 226.154ZM203.421 225.951L202.898 225.425C203.413 224.906 203.921 224.364 204.437 223.808L204.982 224.311C204.467 224.913 203.944 225.462 203.421 225.981V225.951ZM157.993 225.319C157.758 224.565 157.637 223.779 157.634 222.988H158.381C158.385 223.702 158.496 224.412 158.71 225.094L157.993 225.319ZM123.629 224.785C123.285 224.464 122.949 224.133 122.62 223.792L123.151 223.266C123.479 223.597 123.808 223.92 124.144 224.236L123.629 224.785ZM174.428 222.8L173.726 222.536C173.981 221.856 174.163 221.15 174.271 220.431L175.018 220.543C174.894 221.324 174.691 222.09 174.413 222.83L174.428 222.8ZM158.501 221.536L157.754 221.423C157.874 220.654 158.066 219.899 158.329 219.167L159.031 219.423C158.78 220.117 158.598 220.835 158.486 221.566L158.501 221.536ZM175.138 219.001H174.391V218.821C174.39 218.153 174.33 217.486 174.211 216.828L174.958 216.7C175.079 217.401 175.141 218.11 175.145 218.821L175.138 219.001ZM159.606 218.076L158.934 217.753C159.263 217.057 159.645 216.388 160.077 215.752L160.697 216.166C160.282 216.785 159.912 217.433 159.592 218.106L159.606 218.076ZM173.897 215.391L173.83 215.158C173.634 214.538 173.384 213.936 173.083 213.361L173.748 213.015C174.056 213.632 174.306 214.276 174.495 214.94L174.57 215.181L173.897 215.391ZM161.564 214.985L160.981 214.511C161.464 213.914 161.986 213.348 162.542 212.819L163.058 213.368C162.516 213.88 162.011 214.43 161.549 215.015L161.564 214.985ZM164.163 212.428L163.715 211.826C164.33 211.355 164.988 210.945 165.68 210.6L166.009 211.27C165.346 211.606 164.715 212.004 164.126 212.458L164.163 212.428ZM172.336 212.172C171.903 211.625 171.351 211.186 170.723 210.886L171.036 210.202C171.769 210.55 172.411 211.065 172.911 211.706L172.336 212.172ZM167.331 210.751L167.129 209.999C167.89 209.764 168.689 209.68 169.482 209.75L169.408 210.503C168.699 210.458 167.989 210.553 167.316 210.781L167.331 210.751Z" fill="#C9F4E7"/>
<path d="M262.46 209.728H261.048V208.976H263.289V209.728H262.46ZM264.791 209.728V208.976H267.032V209.728H264.791ZM259.561 209.728H257.32V208.976H259.561V209.728ZM255.826 209.675L253.585 209.63V208.878L255.826 208.923V209.675ZM268.526 209.675V208.923H268.899V209.675H268.526ZM252.091 209.615L249.85 209.562V208.81L252.091 208.863V209.615ZM248.356 209.532L246.115 209.487V208.735L248.356 208.78V209.532ZM244.62 209.457H242.379V208.705H244.62V209.457ZM240.885 209.412H238.644V208.66H240.885V209.412Z" fill="#C9F4E7"/>
<path d="M268.235 222.95C267.58 222.622 266.906 222.333 266.218 222.085L266.471 221.378C267.19 221.632 267.892 221.933 268.571 222.281L268.235 222.95ZM264.821 221.641C264.141 221.453 263.438 221.288 262.669 221.138L262.811 220.385C263.603 220.536 264.305 220.709 265.052 220.904L264.821 221.641ZM261.242 220.889C260.495 220.777 259.748 220.686 259.038 220.596L259.121 219.844C259.873 219.929 260.62 220.027 261.362 220.137L261.242 220.889ZM257.507 220.438L255.699 220.265L255.281 220.227L255.348 219.475L255.766 219.52L257.582 219.686L257.507 220.438ZM253.772 220.092C253.025 220.017 252.278 219.942 251.531 219.844L251.62 219.092C252.367 219.182 253.114 219.257 253.861 219.332L253.772 220.092ZM250.036 219.648C249.237 219.528 248.505 219.393 247.795 219.25L247.945 218.498C248.632 218.64 249.349 218.768 250.134 218.889L250.036 219.648ZM246.301 218.896C245.565 218.7 244.84 218.467 244.127 218.197L244.396 217.497C245.081 217.757 245.78 217.981 246.488 218.167L246.301 218.896ZM242.73 217.595C242.04 217.263 241.374 216.884 240.736 216.459L241.154 215.835C241.761 216.239 242.395 216.601 243.052 216.918L242.73 217.595Z" fill="#C9F4E7"/>
<path d="M253.6 232.795C253.452 232.595 253.292 232.405 253.122 232.224L253.667 231.712C253.861 231.923 254.041 232.134 254.198 232.337L253.6 232.795ZM252.106 231.223C251.541 230.748 250.952 230.301 250.343 229.885L250.769 229.26C251.448 229.734 252.053 230.201 252.584 230.652L252.106 231.223ZM249.118 229.065C248.512 228.681 247.863 228.313 247.198 227.929L247.564 227.275C248.236 227.651 248.893 228.027 249.514 228.426L249.118 229.065ZM245.89 227.23C245.211 226.876 244.531 226.553 243.881 226.267L244.187 225.575C244.852 225.876 245.539 226.207 246.227 226.56L245.89 227.23ZM242.521 225.688C241.839 225.415 241.144 225.179 240.437 224.981L240.624 224.229C241.36 224.437 242.083 224.688 242.79 224.981L242.521 225.688Z" fill="#C9F4E7"/>
<path d="M72.8221 234.488L72.4934 233.818C72.6428 233.743 72.7847 233.668 72.9192 233.585L73.3002 234.232C73.1464 234.327 72.9867 234.413 72.8221 234.488ZM74.5702 233.337L74.0921 232.75C74.6225 232.322 75.1379 231.825 75.631 231.351L75.7281 231.254L76.2436 231.795L76.1464 231.893C75.6384 232.382 75.123 232.923 74.5702 233.337ZM77.3268 230.78L76.8337 230.223C77.394 229.719 77.9618 229.223 78.537 228.719L79.0151 229.29C78.4473 229.794 77.8871 230.283 77.3268 230.78ZM80.1581 228.358L79.6874 227.771L81.4355 226.35L81.8987 226.944C81.316 227.41 80.7408 227.877 80.1581 228.358ZM83.0716 226.011L82.6159 225.425L84.3938 224.041L84.8495 224.642C84.2519 225.094 83.6617 225.552 83.0716 226.011ZM86.0597 223.755L85.604 223.153L87.4044 221.799L87.8526 222.401L86.0597 223.755ZM89.0479 221.499L88.5997 220.897L90.3926 219.543L90.8408 220.145L89.0479 221.499ZM92.0361 219.242L91.5954 218.633L93.4032 217.302L93.844 217.911L92.0361 219.242ZM95.0243 216.986L94.5835 216.384C95.1812 215.933 95.7788 215.482 96.3615 215.023L96.8172 215.617C96.2345 216.106 95.6369 216.565 95.0318 217.016L95.0243 216.986Z" fill="#C9F4E7"/>
<path d="M89.0554 238L88.3607 237.722V237.631C88.5922 237.03 88.8462 236.375 89.1077 235.676L89.795 235.962C89.5186 236.654 89.2646 237.308 89.0479 237.902L89.0554 238ZM90.4225 234.57L89.7352 234.277C90.0191 233.6 90.3179 232.908 90.6392 232.201L91.319 232.51C91.0052 233.209 90.7064 233.901 90.4225 234.57ZM91.9166 231.156L91.2443 230.825C91.5879 230.11 91.9315 229.426 92.2752 228.802L92.9251 229.163C92.6263 229.779 92.2827 230.449 91.9465 231.156H91.9166ZM93.6572 227.869L93.0222 227.478C93.4331 226.778 93.8515 226.139 94.2623 225.568L94.8674 226.004C94.5014 226.56 94.098 227.185 93.6871 227.869H93.6572ZM95.7714 224.861L95.2036 224.372C95.7027 223.777 96.2581 223.233 96.8621 222.747L97.3252 223.341C96.7691 223.791 96.2586 224.295 95.8012 224.845L95.7714 224.861Z" fill="#C9F4E7"/>
<path d="M135.858 119.038C135.858 119.038 136.097 119.12 136.515 119.226C136.934 119.331 137.539 119.459 138.248 119.609C138.958 119.76 139.817 119.85 140.721 119.94C141.177 119.993 141.647 120.015 142.118 120.061C142.589 120.106 143.082 120.113 143.567 120.121C144.539 120.158 145.51 120.121 146.429 120.121C146.884 120.121 147.325 120.121 147.743 120.076L148.931 119.993C149.678 119.955 150.283 119.903 150.717 119.865H151.396L150.746 120.076C150.176 120.267 149.595 120.425 149.006 120.549L147.818 120.783C147.392 120.85 146.944 120.918 146.481 120.971C145.503 121.069 144.52 121.109 143.537 121.091C143.037 121.091 142.536 121.023 142.043 120.993C141.55 120.963 141.072 120.88 140.609 120.79C139.766 120.634 138.934 120.418 138.121 120.143C137.545 119.938 136.985 119.686 136.448 119.391C136.245 119.284 136.048 119.166 135.858 119.038Z" fill="#F4DEC6"/>
</svg>
