<svg width="60" height="60" viewBox="0 0 60 60" fill="none" xmlns="http://www.w3.org/2000/svg">
<circle cx="30" cy="30" r="30" fill="#48D6AF" fill-opacity="0.13"/>
<path d="M36.5 18H23.5C19.6 18 17 20.0294 17 24.7647V34.2353C17 38.9706 19.6 41 23.5 41H36.5C40.4 41 43 38.9706 43 34.2353V24.7647C43 20.0294 40.4 18 36.5 18ZM22.525 32.8824C22.525 33.4371 22.083 33.8971 21.55 33.8971C21.017 33.8971 20.575 33.4371 20.575 32.8824V26.1176C20.575 25.5629 21.017 25.1029 21.55 25.1029C22.083 25.1029 22.525 25.5629 22.525 26.1176V32.8824ZM30 33.5588C27.842 33.5588 26.1 31.7459 26.1 29.5C26.1 27.2541 27.842 25.4412 30 25.4412C32.158 25.4412 33.9 27.2541 33.9 29.5C33.9 31.7459 32.158 33.5588 30 33.5588ZM39.425 32.8824C39.425 33.4371 38.983 33.8971 38.45 33.8971C37.917 33.8971 37.475 33.4371 37.475 32.8824V26.1176C37.475 25.5629 37.917 25.1029 38.45 25.1029C38.983 25.1029 39.425 25.5629 39.425 26.1176V32.8824Z" fill="#35DDAE"/>
</svg>
