<svg width="60" height="60" viewBox="0 0 60 60" fill="none" xmlns="http://www.w3.org/2000/svg">
<circle cx="30" cy="30" r="30" fill="#48D6AF" fill-opacity="0.13"/>
<path fill-rule="evenodd" clip-rule="evenodd" d="M39.0061 20.825C33.9061 15.725 25.6235 15.725 20.5235 20.825C15.3322 26.0163 15.4235 34.4815 20.7844 39.5685C25.7409 44.2511 33.7757 44.2511 38.7322 39.5685C44.1061 34.4815 44.1974 26.0163 39.0061 20.825ZM35.4453 36.0728C33.8801 37.5598 31.8192 38.3033 29.7583 38.3033C27.6974 38.3033 25.6366 37.5598 24.0714 36.0728C23.6801 35.6946 23.667 35.0815 24.0322 34.6902C24.4105 34.2989 25.0235 34.2859 25.4148 34.6511C27.8018 36.9076 31.7018 36.9207 34.1018 34.6511C34.4931 34.2859 35.1192 34.2989 35.4844 34.6902C35.8627 35.0815 35.8366 35.6946 35.4453 36.0728ZM27.1306 25.4783C27.1306 26.5588 26.2546 27.4348 25.1741 27.4348C24.0935 27.4348 23.2175 26.5588 23.2175 25.4783C23.2175 24.3977 24.0935 23.5217 25.1741 23.5217C26.2546 23.5217 27.1306 24.3977 27.1306 25.4783ZM34.3046 27.4348C35.3852 27.4348 36.2611 26.5588 36.2611 25.4783C36.2611 24.3977 35.3852 23.5217 34.3046 23.5217C33.224 23.5217 32.3481 24.3977 32.3481 25.4783C32.3481 26.5588 33.224 27.4348 34.3046 27.4348Z" fill="#35DDAE"/>
</svg>
