<svg width="60" height="60" viewBox="0 0 60 60" fill="none" xmlns="http://www.w3.org/2000/svg">
<circle cx="30" cy="30" r="30" fill="#48D6AF" fill-opacity="0.13"/>
<path fill-rule="evenodd" clip-rule="evenodd" d="M30.0435 16.9565C22.8435 16.9565 17 22.8 17 30C17 37.2 22.8435 43.0435 30.0435 43.0435C37.2435 43.0435 43.087 37.2 43.087 30C43.087 22.8 37.2435 16.9565 30.0435 16.9565ZM24.2782 35.7652C24.6565 36.1435 24.6565 36.7696 24.2782 37.1479C24.0826 37.3435 23.8348 37.4348 23.5869 37.4348C23.3391 37.4348 23.0913 37.3435 22.8956 37.1479C20.9913 35.2435 19.9348 32.7 19.9348 30C19.9348 27.3 20.9913 24.7565 22.8956 22.8522C23.2739 22.4739 23.9 22.4739 24.2782 22.8522C24.6565 23.2305 24.6565 23.8565 24.2782 24.2348C22.7391 25.7739 21.8913 27.8218 21.8913 30C21.8913 32.1783 22.7391 34.2261 24.2782 35.7652ZM32.1956 29.7131C33.4478 30.1565 34.0609 31.0305 34.0609 32.4C34.0609 33.9652 32.8348 35.2305 31.3087 35.2305H31.0087V35.4652C31.0087 36 30.5652 36.4435 30.0304 36.4435C29.4956 36.4435 29.0522 36 29.0522 35.4652V35.2305H29.013C27.3565 35.2305 26 33.8348 26 32.1261C26 31.5913 26.4435 31.1478 26.9783 31.1478C27.513 31.1478 27.9565 31.5913 27.9565 32.1261C27.9565 32.7652 28.4261 33.2739 29.013 33.2739H29.0522V30.6913L27.8783 30.2739C26.6261 29.8305 26.013 28.9565 26.013 27.587C26.013 26.0218 27.2391 24.7565 28.7652 24.7565H29.0652V24.5218C29.0652 23.987 29.5087 23.5435 30.0435 23.5435C30.5783 23.5435 31.0217 23.987 31.0217 24.5218V24.7565H31.0609C32.7174 24.7565 34.0739 26.1522 34.0739 27.8609C34.0739 28.3957 33.6304 28.8392 33.0956 28.8392C32.5609 28.8392 32.1174 28.3957 32.1174 27.8609C32.1174 27.2218 31.6478 26.7131 31.0609 26.7131H31.0217V29.2957L32.1956 29.7131ZM37.1913 37.1479C36.9957 37.3435 36.7478 37.4348 36.5 37.4348C36.2522 37.4348 36.0044 37.3435 35.8087 37.1479C35.4305 36.7696 35.4305 36.1435 35.8087 35.7652C37.3478 34.2261 38.1957 32.1783 38.1957 30C38.1957 27.8218 37.3478 25.7739 35.8087 24.2348C35.4305 23.8565 35.4305 23.2305 35.8087 22.8522C36.187 22.4739 36.8131 22.4739 37.1913 22.8522C39.0957 24.7565 40.1522 27.3 40.1522 30C40.1522 32.7 39.0957 35.2435 37.1913 37.1479ZM31.0217 33.2871H31.3218C31.7522 33.2871 32.1174 32.8958 32.1174 32.4132C32.1174 31.8001 31.9739 31.7218 31.5565 31.5784L31.0217 31.3958V33.2871ZM28.5434 28.4348C28.126 28.2913 27.9825 28.213 27.9825 27.6C27.9825 27.1174 28.3347 26.713 28.7781 26.713H29.0782V28.6174L28.5434 28.4348Z" fill="#35DDAE"/>
</svg>
